<?xml version="1.0" encoding="utf-8"?>
<!-- Generator: Adobe Illustrator 21.1.0, SVG Export Plug-In . SVG Version: 6.00 Build 0)  -->
<svg version="1.1" id="Layer_1" xmlns="http://www.w3.org/2000/svg" xmlns:xlink="http://www.w3.org/1999/xlink" x="0px" y="0px"
	 viewBox="0 0 182.3 59" style="enable-background:new 0 0 182.3 59;" xml:space="preserve">
<style type="text/css">
	.st0{clip-path:url(#SVGID_21_);}
	.st1{clip-path:url(#SVGID_22_);}
	.st2{clip-path:url(#SVGID_23_);}
	.st3{clip-path:url(#SVGID_24_);}
	.st4{clip-path:url(#SVGID_25_);}
	.st5{clip-path:url(#SVGID_26_);}
	.st6{clip-path:url(#SVGID_27_);}
	.st7{clip-path:url(#SVGID_28_);}
	.st8{clip-path:url(#SVGID_29_);}
	.st9{clip-path:url(#SVGID_30_);}
	.st10{clip-path:url(#SVGID_31_);}
	.st11{clip-path:url(#SVGID_32_);}
	.st12{clip-path:url(#SVGID_33_);}
	.st13{clip-path:url(#SVGID_34_);}
	.st14{clip-path:url(#SVGID_35_);}
	.st15{clip-path:url(#SVGID_36_);}
	.st16{clip-path:url(#SVGID_37_);}
	.st17{clip-path:url(#SVGID_38_);}
	.st18{clip-path:url(#SVGID_39_);}
	.st19{clip-path:url(#SVGID_40_);fill:#080C38;}
	.st20{opacity:0.5;clip-path:url(#SVGID_40_);fill:#080C38;}
	.st21{fill:#080C38;}
	.st22{fill:#DC2476;}
	.st23{fill:#FFFFFF;}
	.st24{fill:#8DC63F;}
	.st25{font-family:'Roboto-Black';}
	.st26{font-size:10.2675px;}
</style>
<g>
	<g>
		<g>
			<defs>
				<path id="SVGID_1_" d="M36.8,26c0,0.2,0,0.4,0,0.6c0,0.2,0,0.3,0,0.5c0,0.1,0.1,0.2,0.2,0.2l0.7,0.2l0,0.3c-0.5,0-1,0-1.7,0
					c-0.6,0-1.2,0-1.7,0l0-0.3l0.7-0.2c0.1,0,0.1-0.1,0.1-0.2c0-0.1,0-0.3,0-0.5c0-0.2,0-0.4,0-0.6v-4.3c0-0.2,0-0.3,0-0.5
					c0-0.1,0-0.3,0-0.4c0-0.1,0-0.2-0.1-0.2l-0.7-0.2l0-0.3c0.5,0,1,0,1.7,0c0.6,0,1.2,0,1.7,0l0,0.3l-0.7,0.2
					c-0.1,0-0.1,0.1-0.1,0.2c0,0.1,0,0.3,0,0.4c0,0.1,0,0.3,0,0.5V26z"/>
			</defs>
			<defs>
				<path id="SVGID_2_" d="M41.1,27c0,0.1,0,0.2,0.1,0.2l0.7,0.2l0,0.3c-0.5,0-0.9,0-1.2,0c-0.3,0-0.7,0-1.2,0l0-0.3l0.7-0.2
					c0.1,0,0.1-0.1,0.1-0.2c0-0.3,0-0.6,0-1.1v-4.3c0-0.4,0-0.7,0-0.9c0-0.1,0-0.2-0.1-0.2l-0.7-0.2l0-0.3c0.5,0,0.9,0,1.2,0
					c0.4,0,0.7,0,1,0l3.6,4.5c0.1,0.2,0.3,0.4,0.4,0.6c0-0.2,0-0.5,0-0.7v-2.8c0-0.3,0-0.6,0-0.9c0-0.1-0.1-0.1-0.1-0.2l-0.7-0.2
					l0-0.3c0.5,0,0.9,0,1.2,0c0.3,0,0.7,0,1.2,0l0,0.3l-0.7,0.2c-0.1,0-0.1,0.1-0.1,0.2c0,0.2,0,0.5,0,0.9v6l-0.6,0.1l-4.2-5.3
					c-0.1-0.2-0.3-0.4-0.4-0.6c0,0.3,0,0.5,0,0.7V26C41.1,26.4,41.1,26.8,41.1,27z"/>
			</defs>
			<defs>
				<path id="SVGID_3_" d="M55.2,22.1l-0.3,0l-0.4-1.5c-0.3-0.1-0.7-0.1-1.1-0.1c-0.8,0-1.4,0.3-1.9,0.9c-0.4,0.6-0.7,1.4-0.7,2.5
					c0,1.1,0.2,1.9,0.7,2.5c0.5,0.6,1.1,0.9,1.9,0.9c0.2,0,0.4,0,0.6,0v-1.4c0-0.2,0-0.3,0-0.5c0-0.1,0-0.3,0-0.4
					c0-0.1,0-0.2-0.1-0.2l-0.7-0.2l0-0.3c0.5,0,1.1,0,1.7,0c0.6,0,1.1,0,1.6,0l0,0.3l-0.6,0.2c-0.1,0-0.1,0.1-0.1,0.2
					c0,0.1,0,0.3,0,0.4c0,0.1,0,0.3,0,0.5v1.7l0,0c-0.8,0.2-1.5,0.3-2.2,0.3c-1.3,0-2.4-0.3-3.1-1c-0.8-0.7-1.2-1.6-1.2-2.8
					c0-1.3,0.4-2.3,1.2-3c0.8-0.7,1.9-1.1,3.2-1.1c0.7,0,1.3,0.1,1.9,0.2l0,0L55.2,22.1z"/>
			</defs>
			<defs>
				<path id="SVGID_4_" d="M59.8,20.2h1.4c0.9,0,1.8,0,2.7,0l0,0L63.5,22l-0.3,0l-0.3-1.3h-2.1v2.9h0.3c0.3,0,0.6,0,1,0
					c0.1,0,0.2-0.1,0.2-0.1l0.2-0.7l0.4,0c0,0.5,0,0.9,0,1.2c0,0.3,0,0.6,0,1.1l-0.4,0l-0.2-0.8c0-0.1-0.1-0.1-0.2-0.2
					c-0.4,0-0.7,0-1,0h-0.3v1.8c0,0.4,0,0.8,0,1.2H63l0.7-1.4l0.3,0l-0.1,2l0,0c-0.9,0-1.8,0-2.6,0h-1.4c-0.5,0-0.9,0-1.4,0l0-0.3
					l0.7-0.2c0.1,0,0.1-0.1,0.1-0.2c0-0.1,0-0.3,0-0.5c0-0.2,0-0.4,0-0.6v-4.3c0-0.2,0-0.3,0-0.5c0-0.1,0-0.3,0-0.4
					c0-0.1,0-0.2-0.1-0.2l-0.7-0.2l0-0.3C58.8,20.2,59.3,20.2,59.8,20.2z"/>
			</defs>
			<defs>
				<path id="SVGID_5_" d="M67.5,27c0,0.1,0,0.2,0.1,0.2l0.7,0.2l0,0.3c-0.5,0-0.9,0-1.2,0c-0.3,0-0.7,0-1.2,0l0-0.3l0.7-0.2
					c0.1,0,0.1-0.1,0.1-0.2c0-0.3,0-0.6,0-1.1v-4.3c0-0.4,0-0.7,0-0.9c0-0.1,0-0.2-0.1-0.2l-0.7-0.2l0-0.3c0.5,0,0.9,0,1.2,0
					c0.4,0,0.7,0,1,0l3.6,4.5c0.1,0.2,0.3,0.4,0.4,0.6c0-0.2,0-0.5,0-0.7v-2.8c0-0.3,0-0.6,0-0.9c0-0.1-0.1-0.1-0.1-0.2l-0.7-0.2
					l0-0.3c0.5,0,0.9,0,1.2,0c0.3,0,0.7,0,1.2,0l0,0.3l-0.7,0.2c-0.1,0-0.1,0.1-0.1,0.2c0,0.2,0,0.5,0,0.9v6l-0.6,0.1l-4.2-5.3
					c-0.1-0.2-0.3-0.4-0.4-0.6c0,0.3,0,0.5,0,0.7V26C67.5,26.4,67.5,26.8,67.5,27z"/>
			</defs>
			<defs>
				<path id="SVGID_6_" d="M77.9,26c0,0.2,0,0.4,0,0.6c0,0.2,0,0.3,0,0.5c0,0.1,0.1,0.2,0.2,0.2l0.7,0.2l0,0.3c-0.5,0-1,0-1.7,0
					c-0.6,0-1.2,0-1.7,0l0-0.3l0.7-0.2c0.1,0,0.1-0.1,0.1-0.2c0-0.1,0-0.3,0-0.5c0-0.2,0-0.4,0-0.6v-4.3c0-0.2,0-0.3,0-0.5
					c0-0.1,0-0.3,0-0.4c0-0.1,0-0.2-0.1-0.2l-0.7-0.2l0-0.3c0.5,0,1,0,1.7,0c0.6,0,1.2,0,1.7,0l0,0.3l-0.7,0.2
					c-0.1,0-0.1,0.1-0.1,0.2c0,0.1,0,0.3,0,0.4c0,0.1,0,0.3,0,0.5V26z"/>
			</defs>
			<defs>
				<path id="SVGID_7_" d="M82.3,20.2h1.4c0.9,0,1.8,0,2.7,0l0,0L86.1,22l-0.3,0l-0.3-1.3h-2.1v2.9h0.3c0.3,0,0.6,0,1,0
					c0.1,0,0.2-0.1,0.2-0.1l0.2-0.7l0.4,0c0,0.5,0,0.9,0,1.2c0,0.3,0,0.6,0,1.1L85,25l-0.2-0.8c0-0.1-0.1-0.1-0.2-0.2
					c-0.4,0-0.7,0-1,0h-0.3v1.8c0,0.4,0,0.8,0,1.2h2.1l0.7-1.4l0.3,0l-0.1,2l0,0c-0.9,0-1.8,0-2.6,0h-1.4c-0.5,0-0.9,0-1.4,0l0-0.3
					l0.7-0.2c0.1,0,0.1-0.1,0.1-0.2c0-0.1,0-0.3,0-0.5c0-0.2,0-0.4,0-0.6v-4.3c0-0.2,0-0.3,0-0.5c0-0.1,0-0.3,0-0.4
					c0-0.1,0-0.2-0.1-0.2l-0.7-0.2l0-0.3C81.4,20.2,81.8,20.2,82.3,20.2z"/>
			</defs>
			<defs>
				<path id="SVGID_8_" d="M91,26c0,0.2,0,0.4,0,0.6c0,0.2,0,0.3,0,0.5c0,0.1,0,0.2,0.1,0.2l0.6,0.2l0,0.3c-0.4,0-0.9,0-1.5,0
					c-0.6,0-1.2,0-1.7,0l0-0.3l0.7-0.2c0.1,0,0.1-0.1,0.1-0.2c0-0.1,0-0.3,0-0.5c0-0.2,0-0.4,0-0.6v-4.3c0-0.2,0-0.3,0-0.5
					c0-0.1,0-0.3,0-0.4c0-0.1,0-0.2-0.1-0.2l-0.7-0.2l0-0.3c0.5,0,1,0,1.5,0c0.1,0,0.2,0,0.4,0c0.2,0,0.4,0,0.6,0c0.2,0,0.4,0,0.5,0
					c0.1,0,0.3,0,0.3,0c0.9,0,1.6,0.2,2.1,0.5c0.5,0.3,0.7,0.8,0.7,1.3c0,0.5-0.1,1-0.4,1.3c-0.3,0.3-0.7,0.6-1.2,0.8
					c0.3,0.4,0.5,0.8,0.7,1.1c0.2,0.3,0.3,0.5,0.5,0.8c0.2,0.3,0.3,0.5,0.4,0.7c0.1,0.2,0.3,0.4,0.4,0.5c0.1,0.1,0.1,0.1,0.2,0.1
					c0.1,0,0.1,0.1,0.2,0.1c0.1,0,0.1,0.1,0.2,0.1c0.1,0,0.2,0,0.2,0.1l0,0.3c-0.4,0-0.8,0.1-1.2,0.1c-0.4,0-0.6,0-0.8-0.1
					c-0.1,0-0.3-0.1-0.4-0.2c-0.2-0.1-0.3-0.3-0.5-0.5c-0.1-0.2-0.3-0.4-0.4-0.7c-0.2-0.3-0.3-0.5-0.5-0.8c-0.2-0.3-0.3-0.6-0.5-0.9
					c-0.1-0.1-0.1-0.1-0.1-0.2c0-0.1-0.1-0.1-0.1-0.1c0,0-0.1,0-0.1-0.1c0,0-0.1,0-0.1,0l-0.2,0V26z M91,23.7c0.2,0,0.4,0,0.5,0
					c0.5,0,0.9-0.1,1.1-0.4c0.2-0.3,0.4-0.7,0.4-1.2c0-0.5-0.1-0.9-0.3-1.2c-0.2-0.2-0.6-0.4-1.1-0.4c-0.1,0-0.2,0-0.3,0
					c-0.1,0-0.2,0-0.3,0V23.7z"/>
			</defs>
			<defs>
				<path id="SVGID_9_" d="M99.9,26c0,0.2,0,0.4,0,0.6c0,0.2,0,0.3,0,0.5c0,0.1,0.1,0.2,0.2,0.2l0.7,0.2l0,0.3c-0.5,0-1,0-1.7,0
					c-0.6,0-1.2,0-1.7,0l0-0.3l0.7-0.2c0.1,0,0.1-0.1,0.1-0.2c0-0.1,0-0.3,0-0.5c0-0.2,0-0.4,0-0.6v-4.3c0-0.2,0-0.3,0-0.5
					c0-0.1,0-0.3,0-0.4c0-0.1,0-0.2-0.1-0.2l-0.7-0.2l0-0.3c0.5,0,1,0,1.7,0c0.6,0,1.2,0,1.7,0l0,0.3l-0.7,0.2
					c-0.1,0-0.1,0.1-0.1,0.2c0,0.1,0,0.3,0,0.4c0,0.1,0,0.3,0,0.5V26z M100.6,18.8l-2.6,0.9l-0.2-0.3l1.9-1.5L100.6,18.8L100.6,18.8
					z"/>
			</defs>
			<defs>
				<path id="SVGID_10_" d="M104.4,25.3l-0.4,1c-0.1,0.2-0.1,0.4-0.2,0.5c0,0.1-0.1,0.2-0.1,0.3c0,0.1,0,0.1,0,0.1
					c0,0,0.1,0.1,0.1,0.1l0.5,0.1l0,0.3c-0.5,0-0.9,0-1.3,0c-0.3,0-0.7,0-1.2,0l0-0.3l0.6-0.2c0.1,0,0.2-0.1,0.3-0.2
					c0.1-0.1,0.1-0.2,0.2-0.4l2.7-6.5l0.6-0.1l2.3,6.5c0.1,0.3,0.2,0.4,0.2,0.5c0.1,0.1,0.2,0.2,0.3,0.2l0.5,0.2l0,0.3
					c-0.5,0-1,0-1.5,0c-0.6,0-1.3,0-1.9,0l0-0.3l0.5-0.2c0.1,0,0.1,0,0.2-0.1c0,0,0-0.1,0-0.1c0-0.1,0-0.2-0.1-0.3
					c0-0.1-0.1-0.3-0.2-0.5l-0.4-1H104.4z M105.6,22.2c-0.1,0.2-0.1,0.4-0.2,0.6l-0.7,1.9h1.8l-0.7-1.9
					C105.7,22.6,105.6,22.4,105.6,22.2z"/>
			</defs>
			<defs>
				<path id="SVGID_11_" d="M40.6,31.6c-0.4-0.2-0.9-0.3-1.4-0.3c-0.7,0-1.3,0.2-1.8,0.6c-0.5,0.4-0.7,1-0.7,1.6
					c0,0.4,0.1,0.7,0.2,1c0.2,0.3,0.4,0.5,0.6,0.8c0.3,0.2,0.6,0.4,0.9,0.6c0.3,0.2,0.7,0.4,1.1,0.5c0.4,0.2,0.8,0.4,1.2,0.6
					c0.4,0.2,0.8,0.5,1.1,0.8c0.3,0.3,0.6,0.7,0.8,1.1c0.2,0.4,0.3,1,0.3,1.6c0,1.4-0.5,2.4-1.5,3.2c-1,0.8-2.4,1.2-4.1,1.2
					c-1.2,0-2.4-0.2-3.6-0.6l-0.1-0.1l0.5-3.6l0.6-0.1l0.8,3.1c0.5,0.2,1,0.3,1.6,0.3c0.9,0,1.5-0.2,2.1-0.7c0.5-0.4,0.8-1,0.8-1.7
					c0-0.4-0.1-0.8-0.2-1c-0.2-0.3-0.4-0.5-0.7-0.8c-0.3-0.2-0.6-0.4-0.9-0.6c-0.4-0.2-0.7-0.4-1.1-0.5c-0.4-0.2-0.8-0.4-1.2-0.6
					c-0.4-0.2-0.8-0.5-1.1-0.8c-0.3-0.3-0.6-0.7-0.8-1.1c-0.2-0.4-0.3-1-0.3-1.6c0-1.3,0.5-2.3,1.5-3.1c1-0.8,2.3-1.1,3.8-1.1
					c1,0,2.1,0.2,3.4,0.5l0.1,0.1l-0.6,3.3l-0.6,0.1L40.6,31.6z"/>
			</defs>
			<defs>
				<path id="SVGID_12_" d="M49.3,41.7c0,0.4,0,0.8,0,1.1c0,0.3,0,0.6,0,0.9c0,0.2,0.1,0.3,0.3,0.4l1.2,0.4l0,0.5c-0.9,0-2,0-3.1,0
					c-1.2,0-2.2,0-3.2,0l0-0.5L46,44c0.2,0,0.3-0.2,0.3-0.3c0-0.3,0-0.6,0-0.9c0-0.3,0-0.7,0-1.1v-8.1c0-0.3,0-0.6,0-0.9
					c0-0.3,0-0.5,0-0.8c0-0.2-0.1-0.3-0.2-0.3l-1.4-0.4l0-0.5c0.9,0,2,0,3.1,0c1.2,0,2.2,0,3.2,0l0.1,0.5l-1.4,0.4
					c-0.2,0-0.2,0.1-0.3,0.3c0,0.2,0,0.5,0,0.8c0,0.3,0,0.6,0,0.9V41.7z"/>
			</defs>
			<defs>
				<path id="SVGID_13_" d="M59.6,31.6c-0.4-0.2-0.9-0.3-1.4-0.3c-0.7,0-1.3,0.2-1.8,0.6c-0.5,0.4-0.7,1-0.7,1.6
					c0,0.4,0.1,0.7,0.2,1c0.2,0.3,0.4,0.5,0.6,0.8c0.3,0.2,0.6,0.4,0.9,0.6c0.3,0.2,0.7,0.4,1.1,0.5c0.4,0.2,0.8,0.4,1.2,0.6
					c0.4,0.2,0.8,0.5,1.1,0.8c0.3,0.3,0.6,0.7,0.8,1.1c0.2,0.4,0.3,1,0.3,1.6c0,1.4-0.5,2.4-1.5,3.2c-1,0.8-2.4,1.2-4.1,1.2
					c-1.2,0-2.4-0.2-3.6-0.6l-0.1-0.1l0.5-3.6l0.6-0.1l0.8,3.1c0.5,0.2,1,0.3,1.6,0.3c0.9,0,1.5-0.2,2.1-0.7c0.5-0.4,0.8-1,0.8-1.7
					c0-0.4-0.1-0.8-0.2-1c-0.2-0.3-0.4-0.5-0.7-0.8c-0.3-0.2-0.6-0.4-0.9-0.6c-0.4-0.2-0.7-0.4-1.1-0.5c-0.4-0.2-0.8-0.4-1.2-0.6
					c-0.4-0.2-0.8-0.5-1.1-0.8c-0.3-0.3-0.6-0.7-0.8-1.1c-0.2-0.4-0.3-1-0.3-1.6c0-1.3,0.5-2.3,1.5-3.1c1-0.8,2.3-1.1,3.8-1.1
					c1,0,2.1,0.2,3.4,0.5l0.1,0.1l-0.6,3.3l-0.6,0.1L59.6,31.6z"/>
			</defs>
			<defs>
				<path id="SVGID_14_" d="M69,44.8c-1.2,0-2.3,0-3.4,0l0-0.5l1.6-0.4c0.2-0.1,0.3-0.2,0.3-0.3c0-0.5,0-1.2,0-2v-9.9h-2.9l-0.9,2.7
					l-0.6,0.1l-0.3-3.8l0.1-0.1c1.7,0,3.2,0,4.8,0h2.8c1.5,0,3.1,0,4.8,0l0.1,0.1l-0.7,3.7l-0.6,0.1l-0.7-2.8h-2.9v9.9
					c0,0.8,0,1.4,0,2c0,0.2,0.1,0.3,0.3,0.3l1.6,0.4l0,0.5C71.3,44.8,70.2,44.8,69,44.8z"/>
			</defs>
			<defs>
				<path id="SVGID_15_" d="M79,30.7h2.6c1.6,0,3.3,0,5.1,0l0.1,0.1l-0.6,3.4l-0.5,0.1l-0.6-2.5H81v5.4h0.5c0.6,0,1.2,0,1.9,0
					c0.2,0,0.3-0.1,0.3-0.3l0.4-1.4l0.7,0c0,1,0,1.7,0,2.2c0,0.5,0,1.2,0,2.2l-0.7,0l-0.4-1.4c-0.1-0.2-0.2-0.3-0.3-0.3
					c-0.7,0-1.3,0-1.9,0H81v3.5c0,0.7,0,1.5,0,2.2h4l1.3-2.7l0.6-0.1l-0.2,3.8l-0.1,0.1c-1.7,0-3.3,0-4.9,0H79c-0.9,0-1.8,0-2.7,0
					l-0.1-0.5l1.4-0.4c0.2,0,0.3-0.2,0.3-0.3c0-0.3,0-0.6,0-0.9c0-0.3,0-0.7,0-1.1v-8.1c0-0.3,0-0.6,0-0.9c0-0.3,0-0.5,0-0.8
					c0-0.2-0.1-0.3-0.2-0.3l-1.4-0.4l0-0.5C77.2,30.7,78.1,30.7,79,30.7z"/>
			</defs>
			<defs>
				<path id="SVGID_16_" d="M101.4,30.7c0.9,0,1.8,0,2.5,0c0.7,0,1.5,0,2.4,0l0.1,0.5l-1.4,0.4c-0.2,0.1-0.2,0.2-0.2,0.3
					c0,0.4,0,1,0,1.7v8.1c0,0.8,0,1.5,0,2c0,0.2,0.1,0.3,0.3,0.3l1.3,0.4l0,0.5c-1,0-2,0-3.2,0c-1.1,0-2.1,0-2.9,0l-0.1-0.5l1.2-0.4
					c0.2,0,0.2-0.2,0.3-0.4c0-0.5,0-1.2,0-2v-6.5c0-0.4,0-1,0-2c-0.2,0.6-0.5,1.2-0.7,1.8l-4,9.9l-0.9,0.1l-3.8-9.6
					c-0.2-0.5-0.5-1.2-0.7-1.8c0,1,0,1.6,0,1.9v6.3c0,0.8,0,1.5,0,2c0,0.2,0.1,0.3,0.3,0.4l1.1,0.4l0,0.5c-0.8,0-1.5,0-2.1,0
					c-0.6,0-1.3,0-2.3,0l-0.1-0.5l1.4-0.4c0.2-0.1,0.3-0.2,0.3-0.3c0-0.5,0-1.2,0-2v-8.1c0-0.7,0-1.2,0-1.7c0-0.2-0.1-0.3-0.2-0.3
					l-1.4-0.4l0-0.5c1.1,0,2,0,2.5,0c0.8,0,1.6,0,2.4,0l3.5,8.9c0.2,0.4,0.3,0.7,0.4,1.1c0.1-0.3,0.3-0.7,0.4-1.1L101.4,30.7z"/>
			</defs>
			<defs>
				<path id="SVGID_17_" d="M111.1,40.3l-0.7,1.9c-0.1,0.4-0.3,0.7-0.3,0.9c-0.1,0.2-0.1,0.4-0.1,0.5c0,0.1,0,0.2,0.1,0.3
					c0.1,0.1,0.2,0.1,0.3,0.1l1,0.3l0,0.5c-1,0-1.8,0-2.4,0c-0.6,0-1.4,0-2.2,0l-0.1-0.5l1.1-0.3c0.3-0.1,0.4-0.2,0.6-0.4
					c0.1-0.2,0.3-0.4,0.4-0.8l5-12.3l1.1-0.2l4.4,12.3c0.2,0.5,0.3,0.8,0.5,1c0.1,0.2,0.3,0.3,0.6,0.4l1,0.3l0,0.5
					c-0.9,0-1.8,0-2.8,0c-1.2,0-2.4,0-3.6,0l0-0.5l1-0.3c0.1,0,0.2-0.1,0.3-0.2c0.1-0.1,0.1-0.2,0.1-0.3c0-0.1,0-0.3-0.1-0.5
					c-0.1-0.2-0.2-0.5-0.3-0.9l-0.7-1.9H111.1z M113.3,34.5c-0.1,0.4-0.3,0.7-0.4,1.1l-1.4,3.7h3.4l-1.2-3.6
					C113.5,35.3,113.4,34.9,113.3,34.5z"/>
			</defs>
			<defs>
				<path id="SVGID_18_" d="M128.9,31.6c-0.4-0.2-0.9-0.3-1.4-0.3c-0.7,0-1.3,0.2-1.8,0.6c-0.5,0.4-0.7,1-0.7,1.6
					c0,0.4,0.1,0.7,0.2,1c0.2,0.3,0.4,0.5,0.6,0.8c0.3,0.2,0.6,0.4,0.9,0.6c0.3,0.2,0.7,0.4,1.1,0.5c0.4,0.2,0.8,0.4,1.2,0.6
					c0.4,0.2,0.8,0.5,1.1,0.8c0.3,0.3,0.6,0.7,0.8,1.1c0.2,0.4,0.3,1,0.3,1.6c0,1.4-0.5,2.4-1.5,3.2c-1,0.8-2.4,1.2-4.1,1.2
					c-1.2,0-2.4-0.2-3.6-0.6l-0.1-0.1l0.5-3.6l0.6-0.1l0.8,3.1c0.5,0.2,1,0.3,1.6,0.3c0.9,0,1.5-0.2,2.1-0.7c0.5-0.4,0.8-1,0.8-1.7
					c0-0.4-0.1-0.8-0.2-1c-0.2-0.3-0.4-0.5-0.7-0.8c-0.3-0.2-0.6-0.4-0.9-0.6c-0.3-0.2-0.7-0.4-1.1-0.5c-0.4-0.2-0.8-0.4-1.2-0.6
					c-0.4-0.2-0.8-0.5-1.1-0.8c-0.3-0.3-0.6-0.7-0.8-1.1c-0.2-0.4-0.3-1-0.3-1.6c0-1.3,0.5-2.3,1.5-3.1c1-0.8,2.3-1.1,3.8-1.1
					c1,0,2.1,0.2,3.4,0.5l0.1,0.1l-0.6,3.3l-0.6,0.1L128.9,31.6z"/>
			</defs>
			<defs>
				<path id="SVGID_19_" d="M118.8,22v-0.2c0.6-0.1,1.2-0.2,1.9-0.4l0,0.1c-0.1,0.3-0.1,0.6-0.2,1c-0.1,0.4-0.2,0.9-0.3,1.4l-1,4.7
					c0,0.1,0,0.1,0,0.2c0,0.2,0.1,0.3,0.2,0.3c0.1,0.1,0.3,0.1,0.6,0.1l0,0.2c-0.5,0.2-0.8,0.2-1,0.2c-0.2,0-0.4-0.1-0.5-0.2
					c-0.1-0.1-0.2-0.3-0.2-0.5c0,0,0-0.1,0-0.2c-0.4,0.3-0.7,0.5-0.9,0.7c-0.3,0.1-0.4,0.2-0.5,0.2c-0.5,0-0.8-0.2-1.1-0.5
					c-0.3-0.4-0.4-0.8-0.4-1.3c0-0.9,0.3-1.7,0.9-2.4c0.6-0.6,1.3-1,2.2-1c0.2,0,0.5,0,0.8,0.1l0.5-2.4L118.8,22z M119,25.1
					c-0.3-0.1-0.5-0.2-0.8-0.2c-0.5,0-1,0.3-1.4,0.8c-0.4,0.5-0.6,1.2-0.6,1.8c0,0.4,0.1,0.7,0.2,1c0.1,0.3,0.3,0.4,0.6,0.4
					c0.1,0,0.2,0,0.4-0.1c0.2-0.1,0.5-0.3,0.8-0.5L119,25.1z"/>
			</defs>
			<defs>
				<path id="SVGID_20_" d="M122,27.2c0,0.1,0,0.2,0,0.4c0,0.5,0.1,0.8,0.3,1.1c0.2,0.2,0.5,0.4,1,0.4c0.5,0,0.9-0.1,1.4-0.4
					l0.1,0.2c-0.2,0.3-0.6,0.5-0.9,0.6c-0.4,0.2-0.8,0.2-1.1,0.2c-0.5,0-1-0.2-1.3-0.5c-0.3-0.4-0.5-0.8-0.5-1.4
					c0-0.3,0-0.6,0.1-0.8c0.1-0.3,0.2-0.5,0.3-0.8c0.1-0.2,0.3-0.5,0.5-0.7c0.2-0.2,0.4-0.4,0.6-0.5c0.2-0.1,0.5-0.3,0.7-0.3
					c0.3-0.1,0.5-0.1,0.8-0.1c0.4,0,0.8,0.1,1,0.3c0.2,0.2,0.4,0.4,0.4,0.7c0,0.5-0.3,1-1,1.2C123.6,27,122.9,27.2,122,27.2z
					 M122.1,26.8c0.8-0.1,1.3-0.2,1.7-0.4c0.4-0.2,0.6-0.5,0.6-0.8c0-0.2-0.1-0.3-0.2-0.4c-0.1-0.1-0.3-0.2-0.5-0.2
					c-0.4,0-0.7,0.2-1,0.5C122.4,25.8,122.2,26.2,122.1,26.8z"/>
			</defs>
			<use xlink:href="#SVGID_1_"  style="overflow:visible;fill:#080C38;"/>
			<use xlink:href="#SVGID_2_"  style="overflow:visible;fill:#080C38;"/>
			<use xlink:href="#SVGID_3_"  style="overflow:visible;fill:#080C38;"/>
			<use xlink:href="#SVGID_4_"  style="overflow:visible;fill:#080C38;"/>
			<use xlink:href="#SVGID_5_"  style="overflow:visible;fill:#080C38;"/>
			<use xlink:href="#SVGID_6_"  style="overflow:visible;fill:#080C38;"/>
			<use xlink:href="#SVGID_7_"  style="overflow:visible;fill:#080C38;"/>
			<use xlink:href="#SVGID_8_"  style="overflow:visible;fill:#080C38;"/>
			<use xlink:href="#SVGID_9_"  style="overflow:visible;fill:#080C38;"/>
			<use xlink:href="#SVGID_10_"  style="overflow:visible;fill:#080C38;"/>
			<use xlink:href="#SVGID_11_"  style="overflow:visible;fill:#080C38;"/>
			<use xlink:href="#SVGID_12_"  style="overflow:visible;fill:#080C38;"/>
			<use xlink:href="#SVGID_13_"  style="overflow:visible;fill:#080C38;"/>
			<use xlink:href="#SVGID_14_"  style="overflow:visible;fill:#080C38;"/>
			<use xlink:href="#SVGID_15_"  style="overflow:visible;fill:#080C38;"/>
			<use xlink:href="#SVGID_16_"  style="overflow:visible;fill:#080C38;"/>
			<use xlink:href="#SVGID_17_"  style="overflow:visible;fill:#080C38;"/>
			<use xlink:href="#SVGID_18_"  style="overflow:visible;fill:#080C38;"/>
			<use xlink:href="#SVGID_19_"  style="overflow:visible;fill:#080C38;"/>
			<use xlink:href="#SVGID_20_"  style="overflow:visible;fill:#080C38;"/>
			<clipPath id="SVGID_21_">
				<use xlink:href="#SVGID_1_"  style="overflow:visible;"/>
			</clipPath>
			<clipPath id="SVGID_22_" class="st0">
				<use xlink:href="#SVGID_2_"  style="overflow:visible;"/>
			</clipPath>
			<clipPath id="SVGID_23_" class="st1">
				<use xlink:href="#SVGID_3_"  style="overflow:visible;"/>
			</clipPath>
			<clipPath id="SVGID_24_" class="st2">
				<use xlink:href="#SVGID_4_"  style="overflow:visible;"/>
			</clipPath>
			<clipPath id="SVGID_25_" class="st3">
				<use xlink:href="#SVGID_5_"  style="overflow:visible;"/>
			</clipPath>
			<clipPath id="SVGID_26_" class="st4">
				<use xlink:href="#SVGID_6_"  style="overflow:visible;"/>
			</clipPath>
			<clipPath id="SVGID_27_" class="st5">
				<use xlink:href="#SVGID_7_"  style="overflow:visible;"/>
			</clipPath>
			<clipPath id="SVGID_28_" class="st6">
				<use xlink:href="#SVGID_8_"  style="overflow:visible;"/>
			</clipPath>
			<clipPath id="SVGID_29_" class="st7">
				<use xlink:href="#SVGID_9_"  style="overflow:visible;"/>
			</clipPath>
			<clipPath id="SVGID_30_" class="st8">
				<use xlink:href="#SVGID_10_"  style="overflow:visible;"/>
			</clipPath>
			<clipPath id="SVGID_31_" class="st9">
				<use xlink:href="#SVGID_11_"  style="overflow:visible;"/>
			</clipPath>
			<clipPath id="SVGID_32_" class="st10">
				<use xlink:href="#SVGID_12_"  style="overflow:visible;"/>
			</clipPath>
			<clipPath id="SVGID_33_" class="st11">
				<use xlink:href="#SVGID_13_"  style="overflow:visible;"/>
			</clipPath>
			<clipPath id="SVGID_34_" class="st12">
				<use xlink:href="#SVGID_14_"  style="overflow:visible;"/>
			</clipPath>
			<clipPath id="SVGID_35_" class="st13">
				<use xlink:href="#SVGID_15_"  style="overflow:visible;"/>
			</clipPath>
			<clipPath id="SVGID_36_" class="st14">
				<use xlink:href="#SVGID_16_"  style="overflow:visible;"/>
			</clipPath>
			<clipPath id="SVGID_37_" class="st15">
				<use xlink:href="#SVGID_17_"  style="overflow:visible;"/>
			</clipPath>
			<clipPath id="SVGID_38_" class="st16">
				<use xlink:href="#SVGID_18_"  style="overflow:visible;"/>
			</clipPath>
			<clipPath id="SVGID_39_" class="st17">
				<use xlink:href="#SVGID_19_"  style="overflow:visible;"/>
			</clipPath>
			<clipPath id="SVGID_40_" class="st18">
				<use xlink:href="#SVGID_20_"  style="overflow:visible;"/>
			</clipPath>
			<rect x="21.8" y="-46.1" class="st19" width="127.8" height="127.8"/>
			<rect x="21.8" y="-46.1" class="st20" width="127.8" height="127.8"/>
		</g>
	</g>
	<path class="st21" d="M1.8,16.4v9.3c0,2.9-0.6,14.2,12.8,22.2c13.4-7.9,12.8-19.3,12.8-22.2v-9.3H1.8z"/>
	<path class="st22" d="M14.6,47.8c6.3-3.7,9.5-8.2,11.1-12.2l0,0L14.6,25.3L3.5,35.6C5.1,39.6,8.3,44.1,14.6,47.8z"/>
	<rect id="rect7_7_" x="1.8" y="15.4" class="st22" width="25.7" height="1"/>
	<path id="path17_4_" inkscape:connector-curvature="0" class="st23" d="M13.7,22.8L13.7,22.8c-0.2,0-0.3,0-0.4,0v-1.6
		c0.1,0,0.2,0,0.4,0l0,0c0.4,0,0.4-0.2,0.4-0.2c-0.1-0.2-0.3-0.3-0.4-0.3l0,0c-0.2,0-0.3,0-0.4,0v-1.4h-0.3v5
		c-1.8-0.4-3.2-0.2-4.3,0.6c-1.1-0.8-2.5-1-4.3-0.6v-5H3.9v1.4c-0.1,0-0.2,0-0.3,0v-0.1c0,0,0-0.1-0.1-0.1l-0.5,0c0,0-0.1,0-0.1,0.1
		v0.6c0,0,0,0.1,0.1,0.1l0.5,0c0,0,0.1,0,0.1-0.1v-0.1c0.1,0,0.2,0,0.3,0v1.6c-0.1,0-0.2,0-0.3,0v-0.1c0,0,0-0.1-0.1-0.1l-0.5,0
		c0,0-0.1,0-0.1,0.1v0.6c0,0,0,0.1,0.1,0.1l0.5,0c0,0,0.1,0,0.1-0.1v-0.1c0.1,0,0.2,0,0.3,0v1.5l0.2,0c1.9-0.4,3.3-0.2,4.3,0.6
		l0.1,0.1l0.1-0.1c1.1-0.8,2.5-1,4.3-0.6l0.2,0v-1.5c0.1,0,0.2,0,0.4,0l0,0c0.4,0,0.4-0.2,0.4-0.2C14,22.9,13.8,22.8,13.7,22.8
		L13.7,22.8z"/>
	<path id="path53_4_" inkscape:connector-curvature="0" class="st23" d="M25.8,22.8L25.8,22.8c-0.2,0-0.3,0-0.4,0v-1.6
		c0.1,0,0.2,0,0.4,0l0,0c0.4,0,0.4-0.2,0.4-0.2c-0.1-0.2-0.3-0.3-0.4-0.3l0,0c-0.2,0-0.3,0-0.4,0v-1.4H25v5
		c-1.8-0.4-3.2-0.2-4.3,0.6c-1.1-0.8-2.5-1-4.3-0.6v-5H16v1.4c-0.1,0-0.2,0-0.3,0v-0.1c0,0,0-0.1-0.1-0.1l-0.5,0c0,0-0.1,0-0.1,0.1
		v0.6c0,0,0,0.1,0.1,0.1l0.5,0c0,0,0.1,0,0.1-0.1v-0.1c0.1,0,0.2,0,0.3,0v1.6c-0.1,0-0.2,0-0.3,0v-0.1c0,0,0-0.1-0.1-0.1l-0.5,0
		c0,0-0.1,0-0.1,0.1v0.6c0,0,0,0.1,0.1,0.1l0.5,0c0,0,0.1,0,0.1-0.1v-0.1c0.1,0,0.2,0,0.3,0v1.5l0.2,0c1.9-0.4,3.3-0.2,4.3,0.6
		l0.1,0.1l0.1-0.1c1.1-0.8,2.5-1,4.3-0.6l0.2,0v-1.5c0.1,0,0.2,0,0.4,0l0,0c0.4,0,0.4-0.2,0.4-0.2C26.1,22.9,26,22.8,25.8,22.8
		L25.8,22.8z"/>
	<g>
		<path class="st23" d="M4.6,18.9c0,1.6,0,3.3,0,4.9c1.3-0.5,2.9-0.1,3.8,0.5c0-1.6,0-3.3,0-4.9C7.7,18.8,5.9,18.4,4.6,18.9z
			 M7.6,20.9H7v-0.2H6.5v0.4h0.5v0.5H6.5v0.4H7v-0.2h0.6v0.7H5.4v-0.6h0.2v-1.2H5.4v-0.6h2.2V20.9z"/>
	</g>
	<g>
		<path class="st23" d="M8.8,19.5c0,1.6,0,3.3,0,4.9c0.8-0.6,2.5-1,3.8-0.5c0-1.6,0-3.3,0-4.9C11.3,18.4,9.5,18.7,8.8,19.5z
			 M12,22.5h-1.2V22h0.2l-0.1-0.3h-0.6L10.2,22h0.2v0.5H9.4v-0.6h0.2l0.4-1.2H9.9v-0.6h1.7v0.6h-0.2l0.4,1.2H12V22.5z"/>
		<polygon class="st23" points="10.4,21.4 10.8,21.4 10.6,20.8 		"/>
	</g>
	<g>
		<path class="st23" d="M18.7,20.6c-0.2,0-0.2,0.1-0.2,0.3c0,0.1,0,0.2,0.1,0.2c0,0.1,0.1,0.1,0.2,0.1c0.1,0,0.2,0,0.3-0.1
			C19,20.8,18.9,20.6,18.7,20.6z"/>
		<path class="st23" d="M16.7,18.9c0,1.6,0,3.3,0,4.9c1.3-0.5,2.9-0.1,3.8,0.5c0-1.6,0-3.3,0-4.9C19.8,18.8,18,18.4,16.7,18.9z
			 M19.4,22.2c-0.2,0.2-0.5,0.3-0.8,0.3c-0.2,0-0.4,0-0.6-0.1c-0.2-0.1-0.3-0.2-0.3-0.4l0.6-0.1c0.1,0.1,0.1,0.2,0.3,0.2
			c0.2,0,0.3-0.2,0.4-0.5c-0.1,0.1-0.3,0.1-0.5,0.1c-0.2,0-0.4-0.1-0.5-0.2c-0.1-0.1-0.2-0.3-0.2-0.5c0-0.3,0.1-0.5,0.3-0.6
			c0.2-0.1,0.4-0.2,0.6-0.2c0.3,0,0.6,0.1,0.8,0.3c0.2,0.2,0.3,0.5,0.3,0.9C19.7,21.7,19.6,22,19.4,22.2z"/>
	</g>
	<g>
		<path class="st23" d="M20.9,19.5c0,1.6,0,3.3,0,4.9c0.8-0.6,2.5-1,3.8-0.5c0-1.6,0-3.3,0-4.9C23.4,18.4,21.6,18.7,20.9,19.5z
			 M23.6,20.6c-0.3,0.6-0.5,1-0.6,1.4h0.3v0.5H22V22h0.3c0.2-0.5,0.4-0.9,0.8-1.3h-0.8V21h-0.5v-0.8h1.9V20.6z"/>
	</g>
	<g>
		<path class="st23" d="M11.6,37.8v0.9c0,0.1,0,0.2,0,0.3c0,0.1,0.1,0.1,0.1,0.1c0.1,0,0.1,0.1,0.2,0.1c0.1,0,0.2,0,0.3,0
			c0.1,0,0.1-0.1,0.1-0.1c0-0.1,0-0.2,0-0.3v-0.9h-0.2v-0.2h0.7v0.2h-0.2v0.9c0,0.1,0,0.2,0,0.3c0,0.1,0,0.1-0.1,0.2
			c0,0.1-0.1,0.1-0.2,0.1c-0.1,0-0.2,0.1-0.3,0.1c-0.1,0-0.3,0-0.3-0.1c-0.1,0-0.2-0.1-0.2-0.1c0-0.1-0.1-0.1-0.1-0.2
			c0-0.1,0-0.2,0-0.3v-0.9h-0.2v-0.2h0.7v0.2H11.6z"/>
		<path class="st23" d="M13.2,39.1v-1.3H13v-0.2h0.6l0.5,1.2l0.5-1.2h0.6v0.2H15v1.3h0.2v0.2h-0.7v-0.2h0.2v-1.3l-0.6,1.6h-0.1
			l-0.6-1.6v1.3h0.2v0.2H13v-0.2H13.2z"/>
		<path class="st23" d="M15.4,39.3v-0.6h0.2v0.2c0.1,0.2,0.3,0.3,0.4,0.3c0.1,0,0.2,0,0.2-0.1c0.1-0.1,0.1-0.1,0.1-0.2
			c0-0.1,0-0.1-0.1-0.2c-0.1,0-0.1-0.1-0.3-0.1c-0.2,0-0.3-0.1-0.4-0.1c-0.1,0-0.1-0.1-0.2-0.2c0-0.1-0.1-0.2-0.1-0.3
			c0-0.1,0.1-0.3,0.2-0.4c0.1-0.1,0.2-0.1,0.4-0.1c0.1,0,0.3,0,0.4,0.1v-0.1h0.2v0.5h-0.2V38c-0.1-0.1-0.2-0.2-0.4-0.2
			c-0.1,0-0.2,0-0.2,0.1c-0.1,0-0.1,0.1-0.1,0.2c0,0,0,0.1,0,0.1c0,0,0.1,0.1,0.1,0.1c0,0,0.1,0,0.3,0.1c0.2,0,0.3,0.1,0.4,0.1
			c0.1,0,0.1,0.1,0.2,0.2c0.1,0.1,0.1,0.2,0.1,0.3c0,0.2-0.1,0.3-0.2,0.4c-0.1,0.1-0.2,0.1-0.4,0.1c-0.2,0-0.3-0.1-0.5-0.2v0.1H15.4
			z"/>
		<path class="st23" d="M16.9,39.3v-0.6h0.2v0.2c0.1,0.2,0.3,0.3,0.4,0.3c0.1,0,0.2,0,0.2-0.1c0.1-0.1,0.1-0.1,0.1-0.2
			c0-0.1,0-0.1-0.1-0.2c-0.1,0-0.1-0.1-0.3-0.1c-0.2,0-0.3-0.1-0.4-0.1c-0.1,0-0.1-0.1-0.2-0.2c0-0.1-0.1-0.2-0.1-0.3
			c0-0.1,0.1-0.3,0.2-0.4c0.1-0.1,0.2-0.1,0.4-0.1c0.1,0,0.3,0,0.4,0.1v-0.1H18v0.5h-0.2V38c-0.1-0.1-0.2-0.2-0.4-0.2
			c-0.1,0-0.2,0-0.2,0.1c-0.1,0-0.1,0.1-0.1,0.2c0,0,0,0.1,0,0.1c0,0,0.1,0.1,0.1,0.1c0,0,0.1,0,0.3,0.1c0.2,0,0.3,0.1,0.4,0.1
			c0.1,0,0.1,0.1,0.2,0.2c0.1,0.1,0.1,0.2,0.1,0.3c0,0.2-0.1,0.3-0.2,0.4c-0.1,0.1-0.2,0.1-0.4,0.1c-0.2,0-0.3-0.1-0.5-0.2v0.1H16.9
			z"/>
	</g>
	<g>
		<path class="st23" d="M13.8,36.7h-2.6v-1.1h0.4v-2.4h-0.4V32h2.6v1.1h-0.4v2.4h0.4V36.7z"/>
		<path class="st23" d="M15.4,36.7h-1v-1.5h1c0.1,0.4,0.4,0.6,0.7,0.6c0.2,0,0.4-0.1,0.4-0.3c0-0.1,0-0.2-0.1-0.3
			c-0.1-0.1-0.3-0.2-0.6-0.3c-0.4-0.2-0.7-0.3-0.8-0.4c-0.2-0.1-0.3-0.3-0.4-0.5c-0.1-0.2-0.2-0.4-0.2-0.7c0-0.4,0.1-0.8,0.4-1
			c0.3-0.2,0.6-0.4,1-0.4s0.8,0.1,1,0.3V32h1.1v1.3h-1c-0.1-0.4-0.4-0.5-0.7-0.5c-0.2,0-0.3,0.1-0.3,0.3c0,0.1,0,0.2,0.1,0.2
			c0.1,0,0.3,0.2,0.6,0.3c0.5,0.2,0.8,0.4,0.9,0.5c0.1,0.1,0.2,0.1,0.2,0.2c0.1,0.1,0.1,0.2,0.2,0.3c0.1,0.2,0.2,0.5,0.2,0.7
			c0,0.4-0.1,0.7-0.4,1c-0.3,0.3-0.7,0.4-1.1,0.4c-0.4,0-0.8-0.1-1.1-0.4V36.7z"/>
	</g>
	<g>
		<circle class="st23" cx="16" cy="41.2" r="0.2"/>
		<circle class="st23" cx="17.2" cy="41.2" r="0.2"/>
		<circle class="st23" cx="16.6" cy="41.2" r="0.2"/>
		<path class="st23" d="M17.8,41c-0.1,0-0.1,0-0.1,0.1c0,0-0.1,0.1-0.1,0.1c0,0.1,0,0.1,0.1,0.1c0,0,0.1,0.1,0.1,0.1
			c0,0,0.1,0,0.1-0.1c0,0,0.1-0.1,0.1-0.1c0,0,0-0.1-0.1-0.1C17.9,41,17.8,41,17.8,41z"/>
		<path class="st23" d="M11.5,41c0,0-0.1,0-0.1,0.1c0,0-0.1,0.1-0.1,0.1c0,0.1,0,0.1,0.1,0.1c0,0,0.1,0.1,0.1,0.1c0,0,0.1,0,0.1-0.1
			c0,0,0.1-0.1,0.1-0.1c0,0,0-0.1-0.1-0.1C11.6,41,11.5,41,11.5,41z"/>
		<circle class="st23" cx="12.1" cy="41.2" r="0.2"/>
		<circle class="st23" cx="12.7" cy="41.2" r="0.2"/>
		<circle class="st23" cx="13.3" cy="41.2" r="0.2"/>
		<path class="st23" d="M14.8,43.5v-1.5c0.4-0.1,0.7-0.5,0.7-0.9c0-0.5-0.4-0.9-0.9-0.9c-0.5,0-0.9,0.4-0.9,0.9
			c0,0.4,0.3,0.8,0.7,0.9v1.5c-0.4,0-0.8,0.1-1.1,0.3c-0.9,0.4-1.5,1-1.9,1.9c0.1,0.1,0.2,0.2,0.4,0.3h0.9c0,0.2-0.1,0.4-0.1,0.6
			c0.1,0.1,0.2,0.2,0.4,0.2c0-0.3,0.1-0.5,0.1-0.8h1.4v0v1.8c0.1,0,0.1,0.1,0.2,0.1c0.1,0,0.1-0.1,0.2-0.1v-1.8h1.3
			c0.1,0.3,0.1,0.6,0.1,0.8c0.1-0.1,0.2-0.2,0.4-0.2c0-0.2-0.1-0.4-0.1-0.6h0.9c0.1-0.1,0.2-0.2,0.4-0.3
			C17.3,44.4,16.2,43.6,14.8,43.5z M12.8,45.5h-0.9c0.3-0.6,0.9-1.1,1.6-1.4c0,0,0.1,0,0.1-0.1C13.3,44.4,13,45,12.8,45.5z
			 M14.4,45.5h-1.3c0.3-0.8,0.7-1.5,1.3-1.6V45.5z M14.6,41.7c-0.3,0-0.5-0.2-0.5-0.5c0-0.3,0.2-0.5,0.5-0.5c0.3,0,0.5,0.2,0.5,0.5
			C15.2,41.5,14.9,41.7,14.6,41.7z M14.8,45.5v-1.6c0.5,0.1,1,0.8,1.2,1.6H14.8z M16.4,45.5c-0.2-0.6-0.5-1.1-0.8-1.5
			c0.7,0.3,1.4,0.8,1.8,1.5H16.4z"/>
	</g>
</g>
<path class="st24" d="M168.1,35.6H140c-1.7,0-3-1.4-3-3v-8.2c0-1.6,1.3-3,3-3h28.2c1.7,0,3,1.4,3,3v8.2
	C171.1,34.3,169.8,35.6,168.1,35.6z"/>
<text transform="matrix(1 0 0 1 139.0483 32.1589)" class="st23 st25 st26">MOOC</text>
<g>
	<path class="st21" d="M179.2,24.2l-1.5,0c-0.1-5-4.3-9.1-9.3-9l0-1.5C174.2,13.6,179.1,18.3,179.2,24.2z"/>
	<path class="st21" d="M168.4,16.3l0,1.5c3.6-0.1,6.5,2.8,6.6,6.4l1.5,0C176.5,19.8,172.8,16.3,168.4,16.3z"/>
	<path class="st21" d="M168.4,19.1l0,1.5c2.1,0,3.8,1.6,3.8,3.7l1.5,0C173.8,21.4,171.3,19,168.4,19.1z"/>
</g>
</svg>
