<?xml version="1.0" encoding="utf-8"?>
<!-- Generator: Adobe Illustrator 21.1.0, SVG Export Plug-In . SVG Version: 6.00 Build 0)  -->
<svg version="1.1" id="Layer_1" xmlns="http://www.w3.org/2000/svg" xmlns:xlink="http://www.w3.org/1999/xlink" x="0px" y="0px"
	 viewBox="0 0 182.3 59" style="enable-background:new 0 0 182.3 59;" xml:space="preserve">
<style type="text/css">
	.st0{fill:#9D1C27;}
</style>
<g>
	<g>
		<path class="st0" d="M10.9,10.1c-1-0.1-1.7,0.2-2.2,0.7C8.2,11.4,8,12.2,8,13.1V18c0,2.7-0.9,4.5-2.8,5.4c0.9,0.5,1.6,1.1,2.1,2
			c0.5,0.9,0.7,2,0.7,3.4v4.9c0,0.9,0.2,1.7,0.7,2.2c0.4,0.6,1.2,0.8,2.2,0.7v3.6c-2.3,0.2-4-0.2-5.3-1.3c-1.3-1-1.9-2.8-1.9-5.2
			v-4.6c0-1.5-0.3-2.5-1-3.1c-0.7-0.6-1.5-0.9-2.6-0.9v-3.5c1.1,0,1.9-0.3,2.6-0.9c0.7-0.6,1-1.7,1-3.2v-4.6c0-2.4,0.6-4.1,1.9-5.1
			c1.3-1,3.1-1.4,5.3-1.2V10.1z"/>
		<path d="M35.4,35.8c-0.2,0.1-0.3,0.2-0.5,0.3c-0.2,0-0.4,0.1-0.5,0.1h-2.8c-0.2,0-0.4,0-0.6-0.1c-0.2-0.1-0.3-0.2-0.4-0.3
			c-0.1-0.1-0.2-0.3-0.3-0.5c-0.1-0.2-0.1-0.4-0.2-0.5l-0.6-2.4c-0.2,0.4-0.5,0.8-0.8,1.3c-0.4,0.5-0.8,0.9-1.3,1.4
			c-0.5,0.4-1.2,0.8-1.9,1.1c-0.8,0.3-1.6,0.4-2.6,0.4c-1.4,0-2.7-0.3-3.8-0.8c-1.2-0.5-2.1-1.3-2.9-2.2c-0.8-0.9-1.4-2-1.9-3.3
			c-0.4-1.3-0.7-2.6-0.7-4V14c0-0.5,0.1-0.8,0.3-1.1c0.2-0.2,0.5-0.4,1-0.4h4.3c0.5,0,0.9,0.1,1.1,0.3c0.2,0.2,0.3,0.5,0.3,1V26
			c0,0.5,0.1,1,0.4,1.5c0.2,0.5,0.6,0.9,1,1.3c0.4,0.4,0.8,0.7,1.3,0.9c0.5,0.2,1,0.3,1.5,0.3c0.4,0,0.9-0.1,1.4-0.3
			c0.5-0.2,0.9-0.5,1.3-0.8c0.4-0.4,0.7-0.8,1-1.2c0.3-0.5,0.4-1,0.4-1.5V14c0-0.2,0-0.4,0.1-0.6c0.1-0.2,0.2-0.4,0.4-0.5
			c0.2-0.1,0.3-0.2,0.5-0.2c0.1,0,0.3-0.1,0.5-0.1h4.2c0.5,0,0.9,0.1,1.2,0.4c0.2,0.3,0.4,0.6,0.4,1v20.8c0,0.2-0.1,0.5-0.2,0.6
			c-0.1,0.2-0.3,0.4-0.4,0.5L35.4,35.8z"/>
		<path d="M40.9,12.9c0.2-0.1,0.3-0.2,0.5-0.3c0.2,0,0.4-0.1,0.5-0.1h2.8c0.2,0,0.4,0,0.6,0.1c0.2,0.1,0.3,0.2,0.4,0.3
			c0.1,0.1,0.2,0.3,0.3,0.5c0.1,0.2,0.1,0.4,0.2,0.5l0.6,2.4c0.2-0.4,0.4-0.8,0.7-1.3c0.3-0.5,0.6-0.9,1.1-1.4
			c0.4-0.4,1-0.8,1.7-1.1c0.7-0.3,1.5-0.4,2.5-0.4c1.6,0,3,0.3,4.2,1c1.2,0.7,2.2,1.6,2.9,2.7c0.2-0.4,0.6-0.8,1-1.2
			c0.4-0.4,0.9-0.8,1.5-1.2c0.6-0.4,1.2-0.7,2-0.9c0.7-0.2,1.5-0.4,2.4-0.4c1.4,0,2.7,0.3,3.8,0.8c1.1,0.5,2,1.3,2.8,2.2
			c0.8,0.9,1.4,2,1.8,3.3c0.4,1.3,0.6,2.6,0.6,4v12.2c0,0.5-0.1,0.8-0.3,1.1c-0.2,0.2-0.5,0.4-1,0.4h-4.3c-0.5,0-0.9-0.1-1.1-0.3
			c-0.2-0.2-0.3-0.5-0.3-1V22.6c0-0.5-0.1-1-0.3-1.5c-0.2-0.5-0.4-0.9-0.7-1.2c-0.3-0.3-0.7-0.6-1.1-0.8c-0.4-0.2-0.9-0.3-1.4-0.3
			c-0.5,0-0.9,0.1-1.3,0.3c-0.4,0.2-0.8,0.4-1.1,0.8c-0.3,0.3-0.6,0.7-0.8,1.2c-0.2,0.5-0.3,1-0.3,1.5v12.2c0,0.5-0.1,0.8-0.3,1.1
			c-0.2,0.2-0.5,0.4-1,0.4h-0.4h-0.1H56c-0.5,0-0.9-0.1-1.1-0.3c-0.2-0.2-0.3-0.5-0.3-1V22.6c0-0.5-0.1-1-0.2-1.5
			c-0.2-0.5-0.4-0.9-0.7-1.2c-0.3-0.3-0.6-0.6-1.1-0.8c-0.4-0.2-0.9-0.3-1.4-0.3c-0.4,0-0.9,0.1-1.3,0.3c-0.4,0.2-0.8,0.4-1.2,0.8
			c-0.3,0.3-0.6,0.7-0.9,1.2c-0.2,0.5-0.4,1-0.4,1.5v12.3c0,0.2,0,0.4-0.1,0.6c-0.1,0.2-0.2,0.4-0.4,0.5c-0.2,0.1-0.3,0.2-0.5,0.2
			c-0.1,0-0.3,0.1-0.5,0.1h-4.2c-0.5,0-0.9-0.1-1.2-0.4c-0.2-0.3-0.4-0.6-0.4-1V14c0-0.2,0.1-0.4,0.2-0.6c0.1-0.2,0.3-0.4,0.4-0.5
			L40.9,12.9z"/>
		<path d="M83.5,28.8c0.3,0.3,0.7,0.6,1.1,0.8c0.4,0.2,0.8,0.4,1.1,0.6c0.4,0.1,0.7,0.2,0.9,0.3c0.3,0.1,0.5,0.1,0.6,0.1
			c0.2,0,0.5,0,0.9,0c0.4,0,0.7-0.1,1.1-0.2c0.3-0.1,0.6-0.2,0.9-0.5c0.2-0.2,0.4-0.5,0.4-0.9c0-0.3-0.1-0.6-0.2-0.8
			c-0.1-0.2-0.3-0.4-0.6-0.5c-0.3-0.1-0.6-0.3-1-0.4c-0.4-0.1-0.8-0.2-1.3-0.4c-1.5-0.4-2.7-0.9-3.7-1.4c-1-0.6-1.7-1.2-2.3-1.9
			c-0.6-0.7-1-1.4-1.2-2.2c-0.2-0.8-0.3-1.6-0.3-2.5c0-1,0.2-2,0.6-2.8c0.4-0.8,1-1.6,1.7-2.2c0.8-0.6,1.7-1.1,2.7-1.4
			c1.1-0.3,2.2-0.5,3.5-0.5c0.8,0,1.5,0.1,2.2,0.2c0.7,0.1,1.3,0.3,1.9,0.6c0.6,0.3,1.2,0.6,1.8,1.1c0.6,0.4,1.2,1,1.8,1.6
			c0.2,0.2,0.3,0.5,0.3,0.7c0,0.2-0.1,0.4-0.4,0.7c-0.5,0.4-0.9,0.8-1.4,1.2c-0.4,0.4-0.9,0.8-1.4,1.3c-0.1,0.1-0.3,0.2-0.4,0.2
			c-0.1,0-0.3,0-0.4,0c-0.1,0-0.3-0.1-0.4-0.2c-0.1-0.1-0.2-0.2-0.3-0.3c-0.4-0.5-0.9-0.8-1.5-1c-0.6-0.2-1.1-0.3-1.6-0.3
			c-0.6,0-1.1,0.1-1.4,0.3c-0.4,0.2-0.5,0.5-0.5,1c0,0.3,0.1,0.6,0.4,0.8c0.2,0.2,0.5,0.3,0.8,0.4c0.3,0.1,0.6,0.2,1,0.3
			c0.4,0.1,0.7,0.1,1,0.2c1.1,0.4,2.1,0.7,3.1,1.2c0.9,0.4,1.7,0.9,2.4,1.6c0.7,0.6,1.2,1.3,1.6,2.2c0.4,0.9,0.6,1.9,0.6,3.1
			c0,1.2-0.2,2.3-0.7,3.3c-0.5,1-1.2,1.8-2,2.4c-0.9,0.7-1.9,1.2-3,1.5c-1.2,0.3-2.4,0.5-3.8,0.5c-0.8,0-1.5-0.1-2.3-0.2
			c-0.8-0.1-1.6-0.4-2.3-0.7c-0.7-0.3-1.4-0.7-2.1-1.2c-0.7-0.5-1.3-1.1-1.8-1.7c-0.1-0.2-0.2-0.4-0.3-0.5C79,32.1,79,31.9,79,31.8
			c0-0.2,0-0.4,0.1-0.5c0.1-0.2,0.2-0.3,0.3-0.4l2.4-2.4c0.3-0.2,0.6-0.3,0.8-0.3C82.8,28.3,83.1,28.5,83.5,28.8z"/>
		<path d="M105,28.8c0.3,0.3,0.7,0.6,1.1,0.8c0.4,0.2,0.8,0.4,1.1,0.6c0.4,0.1,0.7,0.2,0.9,0.3c0.3,0.1,0.5,0.1,0.6,0.1
			c0.2,0,0.5,0,0.9,0c0.4,0,0.7-0.1,1-0.2c0.3-0.1,0.6-0.2,0.9-0.5c0.2-0.2,0.4-0.5,0.4-0.9c0-0.3-0.1-0.6-0.2-0.8
			c-0.1-0.2-0.3-0.4-0.6-0.5c-0.3-0.1-0.6-0.3-1-0.4c-0.4-0.1-0.8-0.2-1.3-0.4c-1.5-0.4-2.7-0.9-3.7-1.4c-1-0.6-1.7-1.2-2.3-1.9
			c-0.6-0.7-1-1.4-1.2-2.2c-0.2-0.8-0.3-1.6-0.3-2.5c0-1,0.2-2,0.6-2.8c0.4-0.8,1-1.6,1.7-2.2c0.8-0.6,1.7-1.1,2.7-1.4
			c1.1-0.3,2.2-0.5,3.5-0.5c0.8,0,1.5,0.1,2.2,0.2c0.7,0.1,1.3,0.3,1.9,0.6c0.6,0.3,1.2,0.6,1.8,1.1c0.6,0.4,1.2,1,1.8,1.6
			c0.2,0.2,0.3,0.5,0.3,0.7c0,0.2-0.1,0.4-0.4,0.7c-0.5,0.4-0.9,0.8-1.4,1.2c-0.4,0.4-0.9,0.8-1.4,1.3c-0.1,0.1-0.3,0.2-0.4,0.2
			c-0.1,0-0.3,0-0.4,0c-0.1,0-0.3-0.1-0.4-0.2c-0.1-0.1-0.2-0.2-0.3-0.3c-0.4-0.5-0.9-0.8-1.5-1c-0.6-0.2-1.1-0.3-1.6-0.3
			c-0.6,0-1.1,0.1-1.4,0.3c-0.4,0.2-0.5,0.5-0.5,1c0,0.3,0.1,0.6,0.4,0.8c0.2,0.2,0.5,0.3,0.8,0.4c0.3,0.1,0.7,0.2,1,0.3
			c0.4,0.1,0.7,0.1,1,0.2c1.1,0.4,2.1,0.7,3.1,1.2c0.9,0.4,1.7,0.9,2.4,1.6c0.7,0.6,1.2,1.3,1.6,2.2c0.4,0.9,0.6,1.9,0.6,3.1
			c0,1.2-0.2,2.3-0.7,3.3c-0.5,1-1.2,1.8-2,2.4c-0.9,0.7-1.9,1.2-3,1.5c-1.2,0.3-2.4,0.5-3.8,0.5c-0.8,0-1.5-0.1-2.3-0.2
			c-0.8-0.1-1.6-0.4-2.3-0.7c-0.7-0.3-1.4-0.7-2.1-1.2c-0.7-0.5-1.3-1.1-1.8-1.7c-0.1-0.2-0.2-0.4-0.3-0.5c-0.1-0.2-0.1-0.4-0.1-0.6
			c0-0.2,0-0.4,0.1-0.5c0.1-0.2,0.2-0.3,0.3-0.4l2.4-2.4c0.3-0.2,0.6-0.3,0.8-0.3C104.3,28.3,104.6,28.5,105,28.8z"/>
		<path d="M123.2,30.8c0-0.2,0.1-0.4,0.2-0.6c0.1-0.1,0.3-0.2,0.6-0.2h4.9c0.2,0,0.4,0.1,0.6,0.2c0.2,0.1,0.3,0.3,0.3,0.6v4.5
			c0,0.2-0.1,0.4-0.2,0.6c-0.1,0.2-0.4,0.3-0.6,0.3h-4.9c-0.5,0-0.8-0.3-0.8-0.9V30.8z"/>
		<path d="M134.3,14c0-0.4,0.1-0.7,0.3-1c0.2-0.3,0.6-0.4,1-0.4h4.3c0.1,0,0.3,0,0.5,0.1c0.2,0.1,0.3,0.2,0.5,0.3
			c0.1,0.1,0.3,0.3,0.4,0.5c0.1,0.2,0.2,0.4,0.2,0.6v20.7c0,0.5-0.1,0.8-0.4,1.1c-0.3,0.2-0.6,0.4-1.1,0.4h-4.3
			c-0.9,0-1.4-0.5-1.4-1.4V14z"/>
		<path d="M145.1,24.4c0-1.1,0.1-2.2,0.4-3.3c0.3-1.1,0.7-2,1.2-2.9c0.5-0.9,1.2-1.7,1.9-2.5c0.7-0.7,1.6-1.4,2.5-1.9
			c0.9-0.5,1.9-0.9,2.9-1.2c1-0.3,2.1-0.4,3.3-0.4c1.7,0,3.3,0.3,4.7,0.9c1.5,0.6,2.8,1.5,3.9,2.6c1.1,1.1,2,2.4,2.6,3.9
			c0.6,1.5,1,3.1,1,4.8c0,1.1-0.1,2.2-0.4,3.3c-0.3,1-0.7,2-1.2,2.9c-0.5,0.9-1.2,1.7-1.9,2.5c-0.7,0.7-1.6,1.4-2.5,1.9
			c-0.9,0.5-1.9,0.9-2.9,1.2c-1,0.3-2.1,0.4-3.2,0.4c-1.1,0-2.2-0.1-3.3-0.4c-1-0.3-2-0.7-2.9-1.2c-0.9-0.5-1.7-1.2-2.5-1.9
			c-0.7-0.7-1.4-1.6-1.9-2.5c-0.5-0.9-0.9-1.9-1.2-2.9C145.3,26.6,145.1,25.5,145.1,24.4z M151.9,24.4c0,0.8,0.1,1.6,0.4,2.3
			c0.3,0.7,0.6,1.3,1.1,1.8c0.5,0.5,1,0.9,1.7,1.2c0.7,0.3,1.4,0.5,2.2,0.5c0.8,0,1.5-0.2,2.2-0.5c0.6-0.3,1.2-0.7,1.7-1.2
			c0.5-0.5,0.8-1.1,1-1.8c0.2-0.7,0.4-1.5,0.4-2.3c0-0.8-0.1-1.5-0.4-2.3c-0.2-0.7-0.6-1.3-1-1.9c-0.5-0.5-1-1-1.7-1.3
			c-0.6-0.3-1.4-0.5-2.2-0.5c-0.8,0-1.6,0.2-2.2,0.5c-0.7,0.3-1.2,0.7-1.7,1.3c-0.5,0.5-0.8,1.2-1.1,1.9
			C152,22.8,151.9,23.6,151.9,24.4z"/>
		<path class="st0" d="M182.3,25.1c-1.1,0-1.9,0.3-2.6,0.9c-0.7,0.6-1,1.7-1,3.1v4.6c0,2.4-0.6,4.1-1.9,5.1
			c-1.3,1.1-3.1,1.5-5.3,1.3v-3.6c1,0.1,1.7-0.2,2.2-0.7c0.4-0.6,0.7-1.3,0.7-2.2v-4.9c0-1.4,0.2-2.5,0.7-3.4c0.5-0.9,1.2-1.6,2.1-2
			c-1.9-0.9-2.8-2.7-2.8-5.4v-4.9c0-0.9-0.2-1.7-0.7-2.2c-0.4-0.6-1.2-0.8-2.2-0.7V6.5c2.3-0.2,4,0.2,5.3,1.2c1.3,1,1.9,2.7,1.9,5.1
			v4.6c0,1.5,0.3,2.5,1,3.2c0.7,0.6,1.5,0.9,2.6,0.9V25.1z"/>
	</g>
	<g>
		<path d="M44.4,51.7v-0.4c0.8-0.1,0.9-0.2,0.9-1v-2.1c0-1.1-0.4-1.7-1.3-1.7c-0.6,0-1.1,0.3-1.5,0.7v3c0,0.8,0.1,1,0.9,1v0.4h-2.8
			v-0.4c0.8-0.1,0.9-0.2,0.9-1v-6.2c0-0.8-0.1-0.9-0.9-1v-0.3c0.6-0.1,1.4-0.3,1.8-0.5v4.4c0.5-0.4,1.2-0.9,1.9-0.9
			c1.1,0,1.8,0.7,1.8,2.2v2.3c0,0.9,0.1,0.9,0.9,1v0.4H44.4z"/>
		<path d="M52,51.8c-0.2,0-0.4-0.1-0.6-0.2c-0.2-0.2-0.3-0.4-0.3-0.6c-0.5,0.4-1.2,0.8-1.6,0.8c-0.9,0-1.5-0.8-1.5-1.6
			c0-0.6,0.3-1.1,1.1-1.3c0.8-0.3,1.8-0.6,2-0.8v-0.2c0-1-0.5-1.5-1.2-1.5c-0.3,0-0.5,0.1-0.6,0.3c-0.2,0.2-0.3,0.4-0.4,0.8
			c0,0.2-0.2,0.3-0.4,0.3c-0.2,0-0.5-0.2-0.5-0.6c0-0.2,0.2-0.3,0.4-0.5c0.3-0.2,1.2-0.8,1.9-0.9c0.4,0,0.8,0.1,1,0.4
			c0.4,0.4,0.6,0.9,0.6,1.6v2.5c0,0.6,0.2,0.8,0.5,0.8c0.2,0,0.3-0.1,0.5-0.2l0.1,0.4L52,51.8z M51.1,48.5c-0.3,0.1-1,0.4-1.3,0.6
			c-0.5,0.2-0.8,0.5-0.8,1c0,0.7,0.5,1,1,1c0.4,0,0.9-0.3,1.2-0.5V48.5z"/>
		<path d="M58.6,50.5c-0.6,0.7-1.5,1.3-2.2,1.3c-1.6,0-2.6-1.3-2.6-2.7c0-1,0.4-1.9,1.3-2.6c0.7-0.5,1.4-0.7,1.9-0.7h0
			c0.6,0,1,0.2,1.2,0.4c0.2,0.1,0.2,0.2,0.2,0.4c0,0.3-0.3,0.6-0.4,0.6c-0.1,0-0.1,0-0.2-0.1c-0.4-0.4-0.9-0.5-1.3-0.5
			c-0.9,0-1.7,0.8-1.7,2.1c0,1.8,1.2,2.4,2,2.4c0.6,0,1-0.2,1.6-0.8L58.6,50.5z"/>
		<path d="M63.8,51.7c-0.7-0.7-1.5-1.7-2.3-2.6c-0.2-0.2-0.3-0.3-0.4-0.3c-0.1,0-0.2,0-0.2,0.1v1.4c0,0.9,0.1,1,1,1v0.4H59v-0.4
			c0.9-0.1,1-0.2,1-1v-6.1c0-0.9-0.1-1-0.9-1v-0.3c0.7-0.1,1.4-0.3,1.8-0.5v6.1c0.4-0.1,0.6-0.2,0.9-0.4c0.3-0.3,0.7-0.8,0.9-1.2
			c0.3-0.4,0.2-0.5-0.4-0.5V46l2.7-0.1v0.4c-0.9,0.2-1.2,0.3-1.7,0.8c-0.3,0.3-0.6,0.6-1.2,1.3c0.3,0.4,1.6,1.9,2.1,2.3
			c0.4,0.4,0.8,0.7,1.3,0.7v0.4L63.8,51.7z"/>
		<path d="M65.8,51.7v-0.4c0.8-0.1,1-0.2,1-1v-2.7c0-0.8,0-0.8-0.9-1v-0.3c0.7-0.1,1.2-0.3,1.8-0.5v4.5c0,0.9,0.1,1,1,1v0.4H65.8z
			 M66.5,43.9c0-0.4,0.3-0.7,0.7-0.7c0.3,0,0.6,0.3,0.6,0.7c0,0.3-0.3,0.6-0.6,0.6C66.8,44.6,66.5,44.3,66.5,43.9z"/>
		<path d="M73,51.7v-0.4c0.8-0.1,0.9-0.2,0.9-1.1V48c0-0.9-0.3-1.5-1.2-1.5c-0.6,0-1.1,0.4-1.5,0.7v3c0,0.9,0.1,0.9,0.9,1v0.4h-2.8
			v-0.4c0.9-0.1,1-0.2,1-1v-2.7c0-0.8-0.1-0.9-0.8-1v-0.3c0.6-0.1,1.2-0.3,1.7-0.5v1c0.3-0.2,0.5-0.4,0.9-0.6
			c0.4-0.2,0.7-0.4,1.1-0.4c1,0,1.7,0.7,1.7,2v2.5c0,0.9,0.1,0.9,0.9,1v0.4H73z"/>
		<path d="M82.1,46c-0.1,0.2-0.4,0.6-0.6,0.7l-0.7-0.1c0.2,0.3,0.4,0.7,0.4,1.2c0,1.4-1.2,2.1-2.3,2.1c-0.2,0-0.4,0-0.7-0.1
			c-0.2,0.1-0.4,0.4-0.4,0.6c0,0.3,0.2,0.5,0.8,0.5c0.5,0,1,0,1.5,0c0.8,0,1.9,0.3,1.9,1.6c0,1.3-1.5,2.6-3.2,2.6
			c-1.4,0-2.3-0.8-2.3-1.6c0-0.3,0.1-0.6,0.3-0.8c0.2-0.3,0.8-0.7,1.1-0.9c-0.4-0.1-0.8-0.4-1-0.7c-0.1-0.2-0.1-0.4-0.1-0.5
			c0.5-0.2,0.9-0.5,1.1-0.8c-0.5-0.2-1.1-0.8-1.1-1.7c0-1.5,1.3-2.2,2.3-2.2h0c0.4,0,0.9,0.1,1.2,0.3c0.6,0,1.2-0.1,1.8-0.2L82.1,46
			z M79.2,51.7c-0.6,0-0.9,0.1-1.2,0.3c-0.4,0.3-0.6,0.7-0.6,1.1c0,0.7,0.8,1.2,1.7,1.2c1.3,0,1.9-0.6,1.9-1.5
			c0-0.4-0.2-0.8-0.6-0.9C80.2,51.8,79.8,51.7,79.2,51.7L79.2,51.7z M78.9,46.2c-0.6,0-1.1,0.6-1.1,1.6c0,1,0.6,1.7,1.3,1.7
			c0.6,0,1.2-0.5,1.2-1.5C80.2,46.9,79.6,46.2,78.9,46.2L78.9,46.2z"/>
		<path d="M83.8,51.8c-0.4,0-0.7-0.3-0.7-0.8c0-0.4,0.3-0.7,0.7-0.7c0.4,0,0.7,0.3,0.7,0.7C84.5,51.5,84.2,51.8,83.8,51.8L83.8,51.8
			z"/>
		<path d="M90.5,50.6c-0.8,1-1.7,1.2-2.1,1.2c-1.6,0-2.5-1.3-2.5-2.8c0-0.9,0.3-1.7,0.8-2.3c0.5-0.6,1.2-0.9,1.9-0.9h0
			c1.1,0,2,1,2,2c0,0.3,0,0.4-0.3,0.4c-0.2,0-1.9,0.2-3.5,0.2c0,1.8,1.1,2.5,2,2.5c0.5,0,1-0.2,1.5-0.7L90.5,50.6z M88.3,46.3
			c-0.6,0-1.2,0.6-1.5,1.6c0.8,0,1.5,0,2.3,0c0.3,0,0.3-0.1,0.3-0.3C89.5,46.9,89,46.3,88.3,46.3L88.3,46.3z"/>
		<path d="M97.7,51.3c-0.3,0-1.2,0.2-2,0.5v-0.9l-0.8,0.5c-0.5,0.3-0.9,0.4-1.1,0.4c-1,0-2.4-1-2.4-2.8c0-1.8,1.6-3.3,3.3-3.3
			c0.2,0,0.6,0,0.9,0.2v-1.8c0-0.9,0-0.9-1-1v-0.3c0.7-0.1,1.5-0.3,2-0.5v7.8c0,0.7,0.1,0.7,0.6,0.8l0.4,0.1V51.3z M95.8,46.9
			c-0.4-0.5-0.9-0.7-1.4-0.7c-0.7,0-1.8,0.5-1.8,2.4c0,1.5,0.9,2.3,1.8,2.3c0.5,0,1-0.3,1.4-0.5V46.9z"/>
		<path d="M104.5,51.3c-0.3,0-0.6,0.1-1,0.2c-0.3,0.1-0.7,0.2-0.9,0.3l-0.1-0.1v-0.9c-0.3,0.3-0.6,0.5-1,0.7c-0.4,0.2-0.6,0.3-1,0.3
			c-0.8,0-1.6-0.5-1.6-2v-2.5c0-0.7-0.1-0.8-0.4-0.9l-0.4-0.1V46c0.3,0,0.6-0.1,0.9-0.1c0.4-0.1,0.7-0.1,0.9-0.2c0,0.4,0,1.1,0,1.9
			v1.7c0,1.2,0.6,1.5,1.2,1.5c0.5,0,1-0.2,1.5-0.7v-3c0-0.7-0.1-0.8-0.6-0.9l-0.5-0.1V46c0.3,0,0.8-0.1,1.2-0.1
			c0.4-0.1,0.6-0.1,0.8-0.2v4.4c0,0.7,0.1,0.7,0.6,0.8l0.4,0V51.3z"/>
		<path d="M110.1,50.5c-0.6,0.7-1.5,1.3-2.2,1.3c-1.6,0-2.6-1.3-2.6-2.7c0-1,0.4-1.9,1.3-2.6c0.7-0.5,1.4-0.7,1.9-0.7h0
			c0.6,0,1,0.2,1.2,0.4c0.2,0.1,0.2,0.2,0.2,0.4c0,0.3-0.3,0.6-0.4,0.6c-0.1,0-0.1,0-0.2-0.1c-0.4-0.4-0.9-0.5-1.3-0.5
			c-0.9,0-1.7,0.8-1.7,2.1c0,1.8,1.2,2.4,2,2.4c0.6,0,1-0.2,1.6-0.8L110.1,50.5z"/>
		<path d="M115,51.8c-0.2,0-0.4-0.1-0.6-0.2c-0.2-0.2-0.3-0.4-0.3-0.6c-0.5,0.4-1.2,0.8-1.6,0.8c-0.9,0-1.5-0.8-1.5-1.6
			c0-0.6,0.3-1.1,1.1-1.3c0.8-0.3,1.8-0.6,2-0.8v-0.2c0-1-0.5-1.5-1.2-1.5c-0.3,0-0.5,0.1-0.6,0.3c-0.2,0.2-0.3,0.4-0.4,0.8
			c0,0.2-0.2,0.3-0.4,0.3c-0.2,0-0.5-0.2-0.5-0.6c0-0.2,0.2-0.3,0.4-0.5c0.3-0.2,1.2-0.8,1.9-0.9c0.4,0,0.8,0.1,1.1,0.4
			c0.4,0.4,0.6,0.9,0.6,1.6v2.5c0,0.6,0.2,0.8,0.5,0.8c0.2,0,0.3-0.1,0.5-0.2l0.1,0.4L115,51.8z M114,48.5c-0.3,0.1-1,0.4-1.3,0.6
			c-0.5,0.2-0.8,0.5-0.8,1c0,0.7,0.5,1,1,1c0.4,0,0.9-0.3,1.2-0.5V48.5z"/>
		<path d="M118.9,51.6c-0.2,0.1-0.5,0.2-0.6,0.2c-0.8,0-1.2-0.5-1.2-1.5v-3.8h-0.9l-0.1-0.2l0.4-0.4h0.6V45l0.7-0.9l0.2,0v1.8h1.5
			c0.1,0.1,0.1,0.4-0.1,0.5H118v3.4c0,1.1,0.4,1.3,0.8,1.3c0.3,0,0.7-0.1,0.8-0.2l0.1,0.3L118.9,51.6z"/>
		<path d="M120.4,51.7v-0.4c0.8-0.1,1-0.2,1-1v-2.7c0-0.8,0-0.8-0.9-1v-0.3c0.7-0.1,1.2-0.3,1.8-0.5v4.5c0,0.9,0.1,1,1,1v0.4H120.4z
			 M121.1,43.9c0-0.4,0.3-0.7,0.7-0.7c0.3,0,0.6,0.3,0.6,0.7c0,0.3-0.3,0.6-0.6,0.6C121.4,44.6,121.1,44.3,121.1,43.9z"/>
		<path d="M126.9,45.8c1.6,0,2.8,1.3,2.8,2.9c0,2.2-1.6,3.1-2.8,3.1c-1.8,0-2.8-1.4-2.8-2.9C124,46.7,125.7,45.8,126.9,45.8
			L126.9,45.8z M125.1,48.5c0,1.6,0.7,2.8,1.9,2.8c0.9,0,1.5-0.6,1.5-2.4c0-1.5-0.6-2.7-1.8-2.7C125.9,46.2,125.1,47,125.1,48.5z"/>
		<path d="M134.2,51.7v-0.4c0.8-0.1,0.9-0.2,0.9-1.1V48c0-0.9-0.3-1.5-1.2-1.5c-0.6,0-1.1,0.4-1.5,0.7v3c0,0.9,0.1,0.9,0.9,1v0.4
			h-2.8v-0.4c0.9-0.1,1-0.2,1-1v-2.7c0-0.8-0.1-0.9-0.8-1v-0.3c0.6-0.1,1.2-0.3,1.7-0.5v1c0.3-0.2,0.5-0.4,0.9-0.6
			c0.4-0.2,0.7-0.4,1.1-0.4c1,0,1.7,0.7,1.7,2v2.5c0,0.9,0.1,0.9,0.9,1v0.4H134.2z"/>
	</g>
</g>
</svg>
