<?xml version="1.0" encoding="utf-8"?>
<!-- Generator: Adobe Illustrator 21.1.0, SVG Export Plug-In . SVG Version: 6.00 Build 0)  -->
<svg version="1.1" id="Layer_1" xmlns="http://www.w3.org/2000/svg" xmlns:xlink="http://www.w3.org/1999/xlink" x="0px" y="0px"
	 viewBox="0 0 221.6 59" style="enable-background:new 0 0 221.6 59;" xml:space="preserve">
<style type="text/css">
	.st0{fill:#9D1C27;}
</style>
<g>
	<g>
		<path class="st0" d="M13.2,4.5c-1.2-0.1-2.1,0.2-2.7,0.9C10,6,9.8,6.9,9.8,8.1V14c0,3.3-1.1,5.5-3.4,6.5c1.1,0.6,2,1.4,2.6,2.5
			c0.6,1.1,0.9,2.4,0.9,4.1V33c0,1.1,0.3,2,0.8,2.7c0.5,0.7,1.4,1,2.7,0.9v4.4c-2.7,0.2-4.9-0.3-6.5-1.5c-1.6-1.3-2.4-3.4-2.4-6.3
			v-5.6c0-1.8-0.4-3.1-1.2-3.8c-0.8-0.7-1.9-1.1-3.2-1.1v-4.3c1.3,0,2.3-0.4,3.2-1.1s1.2-2,1.2-3.8V7.8c0-2.9,0.8-5,2.4-6.2
			c1.6-1.3,3.7-1.8,6.5-1.5V4.5z"/>
		<path d="M43.1,35.7c-0.2,0.2-0.4,0.3-0.6,0.3c-0.2,0-0.4,0.1-0.6,0.1h-3.4c-0.3,0-0.5,0-0.7-0.1c-0.2-0.1-0.4-0.2-0.5-0.4
			c-0.1-0.2-0.2-0.4-0.3-0.6c-0.1-0.2-0.2-0.4-0.2-0.7L36,31.5c-0.2,0.5-0.6,1-1,1.6c-0.4,0.6-1,1.1-1.6,1.7c-0.7,0.5-1.5,1-2.4,1.3
			c-0.9,0.4-2,0.5-3.2,0.5c-1.7,0-3.3-0.3-4.7-1c-1.4-0.7-2.6-1.6-3.6-2.7c-1-1.1-1.7-2.5-2.3-4c-0.5-1.5-0.8-3.2-0.8-4.9V9.2
			c0-0.6,0.1-1,0.4-1.3c0.2-0.3,0.6-0.4,1.2-0.4h5.2c0.6,0,1.1,0.1,1.3,0.3C24.8,8,24.9,8.4,24.9,9v14.7c0,0.6,0.1,1.3,0.4,1.8
			c0.3,0.6,0.7,1.1,1.2,1.5c0.5,0.4,1,0.8,1.6,1c0.6,0.3,1.2,0.4,1.9,0.4c0.5,0,1.1-0.1,1.7-0.4c0.6-0.3,1.1-0.6,1.6-1
			c0.5-0.4,0.9-0.9,1.2-1.5c0.3-0.6,0.5-1.2,0.5-1.8V9.1c0-0.3,0-0.5,0.1-0.8c0.1-0.3,0.2-0.5,0.4-0.6c0.2-0.1,0.4-0.2,0.6-0.2
			c0.2,0,0.4-0.1,0.6-0.1h5.1c0.6,0,1.1,0.2,1.4,0.5c0.3,0.3,0.4,0.7,0.4,1.3v25.3c0,0.3-0.1,0.5-0.2,0.8c-0.1,0.2-0.3,0.4-0.5,0.6
			L43.1,35.7z"/>
		<path d="M49.7,7.8c0.2-0.2,0.4-0.3,0.6-0.3c0.2,0,0.4-0.1,0.6-0.1h3.4c0.3,0,0.5,0,0.7,0.1c0.2,0.1,0.4,0.2,0.5,0.4
			c0.1,0.2,0.2,0.4,0.3,0.6C55.9,8.8,56,9,56.1,9.2l0.7,2.9c0.2-0.5,0.5-1,0.8-1.6c0.3-0.6,0.8-1.1,1.3-1.7c0.5-0.5,1.2-1,2-1.3
			c0.8-0.4,1.8-0.5,3-0.5c1.9,0,3.6,0.4,5.1,1.2c1.4,0.8,2.6,1.9,3.6,3.3c0.3-0.5,0.7-1,1.2-1.5c0.5-0.5,1.1-1,1.8-1.5
			c0.7-0.5,1.5-0.8,2.4-1.1c0.9-0.3,1.9-0.4,3-0.4c1.7,0,3.2,0.3,4.6,1c1.3,0.7,2.5,1.6,3.4,2.7c0.9,1.1,1.7,2.5,2.1,4
			c0.5,1.5,0.7,3.2,0.7,4.9v14.8c0,0.6-0.1,1-0.4,1.3c-0.2,0.3-0.6,0.4-1.2,0.4H85c-0.6,0-1.1-0.1-1.3-0.3c-0.2-0.2-0.4-0.6-0.4-1.3
			V19.6c0-0.6-0.1-1.2-0.3-1.8c-0.2-0.6-0.5-1-0.8-1.5c-0.4-0.4-0.8-0.7-1.3-1c-0.5-0.2-1.1-0.3-1.7-0.3c-0.6,0-1.1,0.1-1.6,0.3
			c-0.5,0.2-1,0.5-1.4,0.9c-0.4,0.4-0.7,0.9-0.9,1.4c-0.2,0.6-0.3,1.2-0.3,1.9v14.8c0,0.6-0.1,1-0.4,1.3c-0.2,0.3-0.6,0.4-1.2,0.4
			h-0.5h-0.2h-4.6c-0.6,0-1.1-0.1-1.3-0.3c-0.2-0.2-0.4-0.6-0.4-1.3V19.6c0-0.6-0.1-1.2-0.3-1.8c-0.2-0.6-0.5-1-0.8-1.5
			c-0.4-0.4-0.8-0.7-1.3-1c-0.5-0.2-1.1-0.3-1.7-0.3c-0.5,0-1.1,0.1-1.6,0.3c-0.5,0.2-1,0.5-1.4,0.9c-0.4,0.4-0.8,0.9-1,1.4
			c-0.3,0.6-0.4,1.2-0.5,1.9v14.9c0,0.3,0,0.5-0.1,0.8c-0.1,0.3-0.2,0.4-0.4,0.6C57,35.9,56.8,36,56.6,36c-0.2,0-0.4,0.1-0.6,0.1
			h-5.1c-0.6,0-1.1-0.2-1.4-0.5c-0.3-0.3-0.4-0.7-0.4-1.3V9.1c0-0.3,0.1-0.5,0.2-0.8c0.1-0.2,0.3-0.4,0.5-0.6L49.7,7.8z"/>
		<path d="M101.5,27.2c0.4,0.4,0.8,0.7,1.3,1c0.5,0.3,0.9,0.5,1.4,0.7c0.4,0.2,0.8,0.3,1.2,0.4c0.3,0.1,0.6,0.1,0.7,0.1
			c0.3,0,0.6,0,1.1,0c0.4,0,0.9-0.1,1.3-0.2c0.4-0.1,0.8-0.3,1-0.6c0.3-0.3,0.4-0.6,0.4-1.1c0-0.4-0.1-0.8-0.2-1
			c-0.2-0.2-0.4-0.5-0.7-0.6c-0.3-0.2-0.7-0.3-1.2-0.5c-0.5-0.1-1-0.3-1.5-0.5c-1.8-0.5-3.3-1.1-4.5-1.7c-1.2-0.7-2.1-1.4-2.8-2.3
			c-0.7-0.8-1.2-1.7-1.4-2.7c-0.3-1-0.4-2-0.4-3c0-1.2,0.2-2.4,0.7-3.4c0.5-1,1.2-1.9,2.1-2.6c0.9-0.7,2-1.3,3.3-1.7
			c1.3-0.4,2.7-0.6,4.3-0.6c0.9,0,1.8,0.1,2.7,0.2c0.8,0.2,1.6,0.4,2.4,0.7c0.8,0.3,1.5,0.8,2.2,1.3c0.7,0.5,1.4,1.2,2.1,1.9
			c0.3,0.3,0.4,0.6,0.4,0.8c0,0.3-0.2,0.5-0.5,0.8c-0.6,0.5-1.1,1-1.7,1.4c-0.5,0.5-1.1,1-1.7,1.6c-0.2,0.2-0.4,0.2-0.5,0.3
			c-0.2,0-0.4,0-0.5,0c-0.2,0-0.3-0.1-0.5-0.2c-0.2-0.1-0.3-0.2-0.4-0.4c-0.5-0.6-1.1-1-1.8-1.2c-0.7-0.2-1.3-0.3-1.9-0.3
			c-0.7,0-1.3,0.1-1.8,0.4c-0.4,0.3-0.6,0.6-0.6,1.2c0,0.4,0.2,0.7,0.4,0.9c0.3,0.2,0.6,0.4,1,0.5c0.4,0.1,0.8,0.2,1.2,0.3
			c0.4,0.1,0.8,0.2,1.2,0.3c1.4,0.4,2.6,0.9,3.7,1.4c1.1,0.5,2.1,1.1,2.9,1.9c0.8,0.7,1.5,1.6,1.9,2.7c0.5,1,0.7,2.3,0.7,3.8
			c0,1.5-0.3,2.8-0.9,4c-0.6,1.2-1.4,2.2-2.4,3c-1,0.8-2.3,1.4-3.7,1.8c-1.4,0.4-3,0.6-4.6,0.6c-0.9,0-1.9-0.1-2.8-0.2
			c-1-0.2-1.9-0.4-2.8-0.8c-0.9-0.4-1.8-0.8-2.6-1.4c-0.8-0.6-1.5-1.3-2.2-2.1c-0.2-0.2-0.3-0.4-0.4-0.7C96,31.2,96,31,96,30.7
			c0-0.2,0.1-0.4,0.1-0.6c0.1-0.2,0.2-0.3,0.4-0.5l2.9-2.9c0.4-0.3,0.7-0.4,1-0.3C100.7,26.5,101,26.8,101.5,27.2z"/>
		<path d="M127.6,27.2c0.4,0.4,0.8,0.7,1.3,1c0.5,0.3,0.9,0.5,1.4,0.7c0.4,0.2,0.8,0.3,1.2,0.4c0.3,0.1,0.6,0.1,0.7,0.1
			c0.3,0,0.7,0,1.1,0c0.4,0,0.9-0.1,1.3-0.2c0.4-0.1,0.8-0.3,1-0.6c0.3-0.3,0.4-0.6,0.4-1.1c0-0.4-0.1-0.8-0.2-1
			c-0.2-0.2-0.4-0.5-0.7-0.6c-0.3-0.2-0.7-0.3-1.2-0.5c-0.5-0.1-1-0.3-1.5-0.5c-1.8-0.5-3.3-1.1-4.5-1.7c-1.2-0.7-2.1-1.4-2.8-2.3
			c-0.7-0.8-1.2-1.7-1.4-2.7c-0.3-1-0.4-2-0.4-3c0-1.2,0.2-2.4,0.7-3.4c0.5-1,1.2-1.9,2.1-2.6c0.9-0.7,2-1.3,3.3-1.7
			c1.3-0.4,2.7-0.6,4.3-0.6c0.9,0,1.8,0.1,2.7,0.2c0.8,0.2,1.6,0.4,2.4,0.7c0.8,0.3,1.5,0.8,2.2,1.3c0.7,0.5,1.4,1.2,2.1,1.9
			c0.3,0.3,0.4,0.6,0.4,0.8c0,0.3-0.2,0.5-0.5,0.8c-0.6,0.5-1.1,1-1.7,1.4c-0.5,0.5-1.1,1-1.7,1.6c-0.2,0.2-0.4,0.2-0.5,0.3
			c-0.2,0-0.4,0-0.5,0c-0.2,0-0.3-0.1-0.5-0.2c-0.2-0.1-0.3-0.2-0.4-0.4c-0.5-0.6-1.1-1-1.8-1.2c-0.7-0.2-1.3-0.3-1.9-0.3
			c-0.7,0-1.3,0.1-1.8,0.4c-0.4,0.3-0.6,0.6-0.6,1.2c0,0.4,0.2,0.7,0.4,0.9c0.3,0.2,0.6,0.4,1,0.5c0.4,0.1,0.8,0.2,1.2,0.3
			c0.4,0.1,0.8,0.2,1.2,0.3c1.4,0.4,2.6,0.9,3.7,1.4c1.1,0.5,2.1,1.1,2.9,1.9c0.8,0.7,1.5,1.6,1.9,2.7c0.5,1,0.7,2.3,0.7,3.8
			c0,1.5-0.3,2.8-0.9,4c-0.6,1.2-1.4,2.2-2.4,3c-1,0.8-2.3,1.4-3.7,1.8c-1.4,0.4-3,0.6-4.6,0.6c-0.9,0-1.9-0.1-2.8-0.2
			c-1-0.2-1.9-0.4-2.8-0.8c-0.9-0.4-1.8-0.8-2.6-1.4c-0.8-0.6-1.5-1.3-2.2-2.1c-0.2-0.2-0.3-0.4-0.4-0.7c-0.1-0.2-0.1-0.5-0.1-0.7
			c0-0.2,0.1-0.4,0.1-0.6c0.1-0.2,0.2-0.3,0.4-0.5l2.9-2.9c0.4-0.3,0.7-0.4,1-0.3C126.8,26.5,127.2,26.8,127.6,27.2z"/>
		<path d="M149.8,29.6c0-0.3,0.1-0.5,0.2-0.7c0.2-0.2,0.4-0.3,0.7-0.3h6c0.3,0,0.5,0.1,0.7,0.3c0.2,0.2,0.3,0.4,0.3,0.7v5.5
			c0,0.3-0.1,0.5-0.3,0.7c-0.2,0.2-0.4,0.3-0.8,0.3h-6c-0.7,0-1-0.3-1-1V29.6z"/>
		<path d="M163.2,9.2c0-0.5,0.1-0.9,0.4-1.2c0.3-0.3,0.7-0.5,1.3-0.5h5.2c0.2,0,0.4,0,0.6,0.1c0.2,0.1,0.4,0.2,0.6,0.4
			c0.2,0.2,0.3,0.3,0.5,0.6c0.1,0.2,0.2,0.5,0.2,0.7v25.2c0,0.6-0.2,1-0.5,1.3c-0.3,0.3-0.8,0.4-1.4,0.4h-5.2
			c-1.1,0-1.7-0.6-1.7-1.7V9.2z"/>
		<path d="M176.4,21.8c0-1.4,0.2-2.7,0.5-4c0.4-1.3,0.9-2.5,1.5-3.6c0.6-1.1,1.4-2.1,2.3-3c0.9-0.9,1.9-1.7,3-2.3
			c1.1-0.6,2.3-1.1,3.6-1.5c1.3-0.3,2.6-0.5,4-0.5c2,0,4,0.4,5.8,1.1c1.8,0.8,3.4,1.8,4.7,3.1c1.3,1.3,2.4,2.9,3.2,4.7
			c0.8,1.8,1.2,3.7,1.2,5.8c0,1.4-0.2,2.7-0.5,4c-0.4,1.3-0.9,2.5-1.5,3.6c-0.6,1.1-1.4,2.1-2.3,3c-0.9,0.9-1.9,1.7-3,2.3
			c-1.1,0.6-2.3,1.1-3.5,1.5c-1.3,0.3-2.6,0.5-3.9,0.5c-1.4,0-2.7-0.2-4-0.5c-1.3-0.3-2.5-0.8-3.6-1.5c-1.1-0.6-2.1-1.4-3-2.3
			c-0.9-0.9-1.7-1.9-2.3-3c-0.6-1.1-1.1-2.3-1.5-3.6C176.6,24.5,176.4,23.2,176.4,21.8z M184.7,21.8c0,1,0.2,1.9,0.5,2.8
			c0.3,0.9,0.7,1.6,1.3,2.2c0.6,0.6,1.2,1.1,2.1,1.5c0.8,0.4,1.7,0.6,2.7,0.6c1,0,1.9-0.2,2.7-0.6c0.8-0.4,1.5-0.9,2-1.5
			c0.6-0.6,1-1.4,1.3-2.2c0.3-0.9,0.4-1.8,0.4-2.8c0-1-0.1-1.9-0.4-2.8c-0.3-0.9-0.7-1.6-1.3-2.3c-0.5-0.7-1.2-1.2-2-1.6
			c-0.8-0.4-1.7-0.6-2.7-0.6c-1,0-1.9,0.2-2.7,0.6c-0.8,0.4-1.5,0.9-2.1,1.6c-0.6,0.7-1,1.4-1.3,2.3
			C184.8,19.9,184.7,20.8,184.7,21.8z"/>
		<path class="st0" d="M221.6,22.7c-1.3,0-2.3,0.4-3.2,1.1c-0.8,0.7-1.2,2-1.2,3.8v5.6c0,2.9-0.8,5-2.4,6.3
			c-1.6,1.3-3.7,1.8-6.4,1.6v-4.4c1.2,0.1,2.1-0.2,2.6-0.9c0.5-0.7,0.8-1.6,0.8-2.7v-5.9c0-1.7,0.3-3.1,0.9-4.1
			c0.6-1.1,1.4-1.9,2.6-2.5c-2.3-1.1-3.4-3.2-3.4-6.5V8.1c0-1.1-0.3-2-0.8-2.7c-0.5-0.7-1.4-1-2.6-0.9V0.1c2.7-0.3,4.9,0.2,6.5,1.5
			s2.3,3.3,2.3,6.2v5.6c0,1.8,0.4,3.1,1.2,3.8c0.8,0.8,1.9,1.1,3.2,1.1V22.7z"/>
	</g>
	<g>
		<path d="M54,54.9v-0.5c0.9-0.1,1.1-0.2,1.1-1.2v-2.6c0-1.3-0.5-2-1.6-2c-0.7,0-1.3,0.3-1.8,0.9v3.7c0,1,0.1,1.2,1.1,1.2v0.5h-3.4
			v-0.5c1-0.1,1.1-0.2,1.1-1.2v-7.5c0-1-0.1-1.1-1.1-1.2v-0.4c0.7-0.1,1.7-0.4,2.2-0.6v5.3c0.6-0.5,1.4-1.2,2.3-1.2
			c1.3,0,2.2,0.8,2.2,2.7v2.8c0,1.1,0.1,1.1,1.1,1.2v0.5H54z"/>
		<path d="M63.3,55.1c-0.2,0-0.5-0.1-0.7-0.3c-0.2-0.2-0.3-0.5-0.4-0.7c-0.7,0.4-1.4,1-2,1c-1.1,0-1.9-0.9-1.9-2
			c0-0.7,0.4-1.3,1.3-1.6c1-0.3,2.1-0.8,2.5-1v-0.2c0-1.2-0.6-1.8-1.4-1.8c-0.3,0-0.6,0.1-0.8,0.3c-0.2,0.2-0.3,0.5-0.5,1
			c0,0.2-0.2,0.3-0.5,0.3c-0.2,0-0.7-0.3-0.7-0.7c0-0.2,0.2-0.4,0.5-0.6c0.4-0.3,1.4-0.9,2.3-1.1c0.5,0,0.9,0.1,1.3,0.4
			c0.5,0.5,0.7,1.1,0.7,1.9v3c0,0.7,0.3,1,0.6,1c0.2,0,0.4-0.1,0.6-0.2l0.2,0.4L63.3,55.1z M62.1,51.1c-0.4,0.2-1.2,0.5-1.6,0.7
			c-0.7,0.3-1,0.6-1,1.2c0,0.8,0.7,1.2,1.2,1.2c0.4,0,1.1-0.4,1.4-0.6V51.1z"/>
		<path d="M71.2,53.5c-0.7,0.9-1.8,1.6-2.7,1.6c-2,0-3.2-1.6-3.2-3.3c0-1.3,0.5-2.3,1.6-3.1c0.8-0.6,1.7-0.9,2.4-0.9h0
			c0.7,0,1.2,0.2,1.4,0.4c0.2,0.2,0.3,0.3,0.3,0.5c0,0.3-0.4,0.7-0.5,0.7c-0.1,0-0.2,0-0.3-0.1c-0.5-0.5-1-0.6-1.6-0.6
			c-1.1,0-2.1,1-2.1,2.6c0,2.2,1.5,2.9,2.4,2.9c0.7,0,1.2-0.2,2-0.9L71.2,53.5z"/>
		<path d="M77.6,54.9c-0.8-0.9-1.8-2.1-2.8-3.2c-0.2-0.3-0.4-0.3-0.5-0.3c-0.1,0-0.2,0-0.3,0.1v1.7c0,1,0.1,1.2,1.2,1.2v0.5h-3.5
			v-0.5c1.1-0.1,1.2-0.2,1.2-1.2v-7.4c0-1.1-0.1-1.2-1.1-1.2v-0.4c0.8-0.1,1.7-0.4,2.2-0.6v7.5c0.5-0.1,0.8-0.3,1.1-0.5
			c0.3-0.4,0.8-1,1.1-1.4c0.3-0.4,0.3-0.6-0.4-0.7V48l3.3-0.2v0.5c-1.1,0.2-1.5,0.4-2.1,1c-0.4,0.4-0.7,0.7-1.4,1.5
			c0.3,0.5,2,2.3,2.5,2.8c0.5,0.5,1,0.8,1.6,0.9v0.5L77.6,54.9z"/>
		<path d="M80,54.9v-0.5c1-0.1,1.2-0.2,1.2-1.2v-3.3c0-1,0-1-1.1-1.2v-0.4c0.8-0.2,1.5-0.3,2.2-0.7v5.5c0,1.1,0.1,1.2,1.2,1.2v0.5
			H80z M80.8,45.6c0-0.5,0.4-0.8,0.8-0.8c0.4,0,0.7,0.3,0.7,0.8c0,0.4-0.3,0.8-0.8,0.8C81.2,46.3,80.8,46,80.8,45.6z"/>
		<path d="M88.8,54.9v-0.5c1-0.1,1.1-0.2,1.1-1.3v-2.6c0-1.1-0.4-1.9-1.5-1.9c-0.7,0-1.4,0.4-1.9,0.9v3.7c0,1.1,0.1,1.1,1.1,1.2v0.5
			h-3.4v-0.5c1.1-0.1,1.2-0.2,1.2-1.2V50c0-1-0.1-1.1-1-1.2v-0.4c0.8-0.1,1.5-0.3,2.1-0.7V49c0.3-0.2,0.7-0.5,1.1-0.7
			c0.4-0.3,0.9-0.5,1.4-0.5c1.2,0,2,0.9,2,2.4v3.1c0,1.1,0.1,1.1,1.1,1.2v0.5H88.8z"/>
		<path d="M99.8,48c-0.1,0.3-0.5,0.7-0.7,0.8l-0.9-0.1c0.3,0.3,0.5,0.9,0.5,1.4c0,1.7-1.4,2.6-2.8,2.6c-0.2,0-0.5,0-0.8-0.1
			c-0.2,0.2-0.5,0.5-0.5,0.7c0,0.3,0.3,0.6,1,0.6c0.6,0,1.2,0,1.8,0c1,0,2.3,0.3,2.3,1.9c0,1.6-1.8,3.1-3.9,3.1c-1.7,0-2.7-1-2.8-2
			c0-0.3,0.1-0.7,0.4-0.9c0.3-0.3,0.9-0.8,1.3-1.1c-0.5-0.2-1-0.5-1.2-0.9c-0.1-0.2-0.2-0.5-0.2-0.6c0.6-0.2,1.1-0.7,1.3-1
			c-0.6-0.3-1.3-1-1.3-2.1c0-1.8,1.6-2.7,2.8-2.7h0c0.5,0,1,0.1,1.5,0.4c0.8,0,1.5-0.1,2.2-0.2L99.8,48z M96.3,55
			c-0.8,0-1.1,0.1-1.4,0.4c-0.5,0.4-0.8,0.8-0.8,1.3c0,0.9,0.9,1.5,2.1,1.5c1.6,0,2.4-0.8,2.4-1.8c0-0.5-0.3-0.9-0.7-1.1
			C97.5,55.1,97,55,96.3,55L96.3,55z M95.9,48.3c-0.7,0-1.4,0.7-1.4,1.9c0,1.2,0.7,2.1,1.6,2.1c0.7,0,1.4-0.7,1.4-1.9
			C97.5,49.1,96.8,48.3,95.9,48.3L95.9,48.3z"/>
		<path d="M101.8,55.1c-0.5,0-0.9-0.3-0.9-0.9c0-0.5,0.4-0.9,0.9-0.9c0.5,0,0.9,0.4,0.9,0.9C102.7,54.8,102.3,55.1,101.8,55.1
			L101.8,55.1z"/>
		<path d="M110,53.7c-1,1.2-2.1,1.5-2.6,1.5c-1.9,0-3.1-1.6-3.1-3.4c0-1.1,0.4-2.1,1-2.8c0.6-0.7,1.5-1.2,2.3-1.2h0
			c1.3,0,2.4,1.2,2.4,2.4c0,0.4-0.1,0.5-0.3,0.5c-0.3,0-2.3,0.2-4.2,0.3c0,2.2,1.3,3.1,2.4,3.1c0.7,0,1.2-0.3,1.8-0.8L110,53.7z
			 M107.3,48.4c-0.7,0-1.5,0.7-1.8,1.9c0.9,0,1.9,0,2.8,0c0.3,0,0.4-0.1,0.4-0.3C108.8,49.1,108.2,48.4,107.3,48.4L107.3,48.4z"/>
		<path d="M118.8,54.5c-0.3,0.1-1.5,0.3-2.4,0.6v-1l-1,0.6c-0.7,0.4-1.1,0.5-1.3,0.5c-1.3,0-2.9-1.2-2.9-3.4c0-2.2,2-4,4.1-4
			c0.3,0,0.8,0,1.1,0.2v-2.2c0-1.1-0.1-1.1-1.3-1.2v-0.4c0.8-0.1,1.9-0.4,2.4-0.6v9.5c0,0.8,0.1,0.9,0.7,0.9l0.5,0.1V54.5z
			 M116.4,49.2c-0.4-0.6-1.1-0.8-1.7-0.8c-0.8,0-2.2,0.6-2.2,2.9c0,1.9,1.2,2.8,2.2,2.8c0.6,0,1.3-0.3,1.7-0.6V49.2z"/>
		<path d="M127.1,54.5c-0.3,0.1-0.8,0.1-1.2,0.3c-0.4,0.1-0.8,0.2-1.1,0.3l-0.1-0.1v-1.1c-0.4,0.3-0.8,0.6-1.3,0.9
			c-0.5,0.3-0.8,0.4-1.2,0.4c-1,0-2-0.6-2-2.4v-3c0-0.9-0.1-1-0.5-1l-0.5-0.1v-0.4c0.3,0,0.7-0.1,1.1-0.1c0.4-0.1,0.9-0.1,1.1-0.2
			c-0.1,0.5-0.1,1.3-0.1,2.4v2.1c0,1.5,0.7,1.9,1.5,1.9c0.6,0,1.2-0.3,1.8-0.8v-3.6c0-0.9-0.2-1-0.7-1l-0.6-0.1v-0.4
			c0.4,0,1-0.1,1.4-0.1c0.4-0.1,0.8-0.1,1-0.2v5.3c0,0.8,0.1,0.9,0.8,0.9l0.5,0V54.5z"/>
		<path d="M133.8,53.5c-0.7,0.9-1.8,1.6-2.7,1.6c-2,0-3.2-1.6-3.2-3.3c0-1.3,0.5-2.3,1.6-3.1c0.8-0.6,1.7-0.9,2.4-0.9h0
			c0.7,0,1.2,0.2,1.4,0.4c0.2,0.2,0.3,0.3,0.3,0.5c0,0.3-0.4,0.7-0.5,0.7c-0.1,0-0.2,0-0.3-0.1c-0.5-0.5-1-0.6-1.6-0.6
			c-1.1,0-2.1,1-2.1,2.6c0,2.2,1.5,2.9,2.4,2.9c0.7,0,1.2-0.2,2-0.9L133.8,53.5z"/>
		<path d="M139.8,55.1c-0.2,0-0.5-0.1-0.7-0.3c-0.2-0.2-0.3-0.5-0.4-0.7c-0.7,0.4-1.4,1-2,1c-1.1,0-1.9-0.9-1.9-2
			c0-0.7,0.4-1.3,1.3-1.6c1-0.3,2.1-0.8,2.5-1v-0.2c0-1.2-0.6-1.8-1.4-1.8c-0.3,0-0.6,0.1-0.8,0.3c-0.2,0.2-0.3,0.5-0.5,1
			c0,0.2-0.2,0.3-0.5,0.3c-0.2,0-0.7-0.3-0.7-0.7c0-0.2,0.2-0.4,0.5-0.6c0.4-0.3,1.4-0.9,2.3-1.1c0.5,0,0.9,0.1,1.3,0.4
			c0.5,0.5,0.7,1.1,0.7,1.9v3c0,0.7,0.3,1,0.6,1c0.2,0,0.4-0.1,0.6-0.2l0.2,0.4L139.8,55.1z M138.6,51.1c-0.4,0.2-1.2,0.5-1.6,0.7
			c-0.7,0.3-1,0.6-1,1.2c0,0.8,0.7,1.2,1.2,1.2c0.4,0,1.1-0.4,1.4-0.6V51.1z"/>
		<path d="M144.6,54.9c-0.3,0.2-0.6,0.2-0.7,0.2c-1,0-1.5-0.6-1.5-1.9v-4.6h-1.1l-0.1-0.2l0.4-0.5h0.8v-1.1l0.9-1l0.2,0v2.1h1.9
			c0.2,0.2,0.1,0.5-0.1,0.7h-1.8v4.1c0,1.3,0.5,1.5,0.9,1.5c0.4,0,0.8-0.2,1-0.3l0.2,0.4L144.6,54.9z"/>
		<path d="M146.4,54.9v-0.5c1-0.1,1.2-0.2,1.2-1.2v-3.3c0-1,0-1-1.1-1.2v-0.4c0.8-0.2,1.5-0.3,2.2-0.7v5.5c0,1.1,0.1,1.2,1.2,1.2
			v0.5H146.4z M147.2,45.6c0-0.5,0.4-0.8,0.8-0.8c0.4,0,0.7,0.3,0.7,0.8c0,0.4-0.3,0.8-0.8,0.8C147.6,46.3,147.2,46,147.2,45.6z"/>
		<path d="M154.2,47.8c1.9,0,3.4,1.6,3.4,3.6c0,2.6-1.9,3.8-3.4,3.8c-2.2,0-3.5-1.7-3.5-3.5C150.8,48.9,152.8,47.8,154.2,47.8
			L154.2,47.8z M152.1,51.1c0,2,0.9,3.5,2.3,3.5c1,0,1.9-0.8,1.9-2.9c0-1.8-0.8-3.3-2.2-3.3C153,48.3,152.1,49.3,152.1,51.1z"/>
		<path d="M163.2,54.9v-0.5c1-0.1,1.1-0.2,1.1-1.3v-2.6c0-1.1-0.4-1.9-1.5-1.9c-0.7,0-1.4,0.4-1.9,0.9v3.7c0,1.1,0.1,1.1,1.1,1.2
			v0.5h-3.4v-0.5c1.1-0.1,1.2-0.2,1.2-1.2V50c0-1-0.1-1.1-1-1.2v-0.4c0.8-0.1,1.5-0.3,2.1-0.7V49c0.3-0.2,0.7-0.5,1.1-0.7
			c0.4-0.3,0.9-0.5,1.4-0.5c1.2,0,2,0.9,2,2.4v3.1c0,1.1,0.1,1.1,1.1,1.2v0.5H163.2z"/>
	</g>
</g>
</svg>
